<?xml version="1.0" encoding="UTF-8"?>
<svg version="1.1" xmlns="http://www.w3.org/2000/svg" width="665" height="375">
<path d="M0 0 C219.45 0 438.9 0 665 0 C665 123.75 665 247.5 665 375 C445.55 375 226.1 375 0 375 C0 251.25 0 127.5 0 0 Z " fill="#FEFEFE" transform="translate(0,0)"/>
<path d="M0 0 C-1.04618508 4.41722591 -2.93161874 7.37353086 -5.625 10.9375 C-7.96871948 14.19811392 -8.97264038 15.85864195 -9.75 19.875 C-8.7998606 23.83391418 -7.40946129 24.88938111 -4 27 C-0.23099417 28.88450291 4.81667111 27.90038419 8.99609375 27.69726562 C17.02299874 27.5175588 22.3732716 30.56265853 28.6875 35.3125 C33.63935697 38.89354742 38.86329419 41.6715683 44.3125 44.421875 C47 46 47 46 49 49 C47.35 49.66 45.7 50.32 44 51 C44 51.66 44 52.32 44 53 C45.485 53.495 45.485 53.495 47 54 C47.33 53.01 47.66 52.02 48 51 C49.65 51.33 51.3 51.66 53 52 C52.01 55.3 51.02 58.6 50 62 C48.39125 61.731875 46.7825 61.46375 45.125 61.1875 C38.38663109 60.57201435 32.89404674 62.11041357 26.58447266 64.25854492 C21.19880406 66.00513466 16.54710916 66.40972716 11 65 C8.31513395 63.05347211 7.29120676 61.87362028 6.25 58.75 C6.12625 57.88375 6.12625 57.88375 6 57 C5.34 57 4.68 57 4 57 C3.7834375 58.423125 3.7834375 58.423125 3.5625 59.875 C3 63 3 63 2 65 C1.48506652 71.43666844 1.57090216 77.11976997 4.203125 83.0546875 C5.39277454 85.95883196 5.95129577 88.95159744 6.5703125 92.01953125 C7.00494102 94.19463794 7.00494102 94.19463794 8 97 C9.92366477 93.32075767 11.75417237 89.78357558 13 85.8125 C14.15150133 82.57390252 15.65237921 80.49434709 18 78 C18.66 78 19.32 78 20 78 C19.690625 79.155 19.38125 80.31 19.0625 81.5 C18.05833201 85.92810189 17.76415599 90.29101959 17.5625 94.8125 C17.13173041 103.63552896 16.20796487 112.58866538 11 120 C10.34 120 9.68 120 9 120 C8.82984375 119.27554688 8.6596875 118.55109375 8.484375 117.8046875 C6.67184668 110.57385642 4.60652436 105.60652436 -0.75 100.25 C-1.4925 99.5075 -2.235 98.765 -3 98 C-3 97.34 -3 96.68 -3 96 C-3.99 96 -4.98 96 -6 96 C-5.4225 96.7425 -4.845 97.485 -4.25 98.25 C0.02306543 104.65959815 2.31932837 112.33611908 2 120 C0 119 -2 118 -4 117 C-0.23248129 122.90815433 3.81201761 128.29334572 8.4609375 133.54296875 C10.42592765 136.6799708 10.509874 138.35136036 10 142 C7.09563983 148.03470802 3.06139292 153.60457984 -2 158 C-2.721875 158.763125 -3.44375 159.52625 -4.1875 160.3125 C-8.35006809 162.81004085 -12.26206454 162.33119549 -17 162 C-16.81069205 153.9458074 -16.81069205 153.9458074 -13.75 150.375 C-11 149 -11 149 -8.3125 149.1875 C-6 150 -6 150 -4 151 C-2.5783681 147.6828589 -1.60990891 144.55780196 -1 141 C-3.76193979 139.3156352 -6.54380862 137.69914292 -9.375 136.1328125 C-10.26445312 135.63974609 -10.26445312 135.63974609 -11.171875 135.13671875 C-12.38732985 134.46406318 -13.60609176 133.79734783 -14.828125 133.13671875 C-18.84305896 130.8935926 -22.04981212 128.5413304 -25 125 C-25.5234375 122.89453125 -25.5234375 122.89453125 -25.375 120.8125 C-25.33117187 120.04679687 -25.28734375 119.28109375 -25.2421875 118.4921875 C-25.16226562 117.66976562 -25.08234375 116.84734375 -25 116 C-24.88011719 114.61167969 -24.88011719 114.61167969 -24.7578125 113.1953125 C-24.53320638 110.79270763 -24.28019483 108.39666651 -24 106 C-21.525 105.505 -21.525 105.505 -19 105 C-19.01332367 104.45400146 -19.02664734 103.90800293 -19.04037476 103.34545898 C-19.17367106 97.63500659 -19.26383826 91.92499978 -19.32958984 86.21337891 C-19.35966346 84.08526645 -19.40053411 81.95727693 -19.45263672 79.82958984 C-19.52586732 76.76108396 -19.55955099 73.6942238 -19.5859375 70.625 C-19.63238907 69.21045532 -19.63238907 69.21045532 -19.67977905 67.76733398 C-19.68285463 61.65719044 -18.43930314 58.21217952 -14.56694031 53.46725464 C-12.26874259 51.31526375 -10.5431775 51.06315151 -7.4375 51.125 C-3.01661635 51.13754151 -1.40306925 50.7612277 3 49 C-1.29 48.67 -5.58 48.34 -10 48 C-10 47.34 -10 46.68 -10 46 C-5.05110469 43.8348583 -0.06892183 41.86749751 5 40 C3.69675781 39.81824219 3.69675781 39.81824219 2.3671875 39.6328125 C1.21476562 39.46523437 0.06234375 39.29765625 -1.125 39.125 C-2.26195312 38.96257812 -3.39890625 38.80015625 -4.5703125 38.6328125 C-12.41842071 37.18475609 -17.29245502 34.53056485 -22 28 C-23.04846984 25.04832947 -22.94956821 22.97104163 -22 20 C-18.86697646 13.83381024 -7.27187048 0 0 0 Z " fill="#0FBE0E" transform="translate(336,95)"/>
<path d="M0 0 C-1.04618508 4.41722591 -2.93161874 7.37353086 -5.625 10.9375 C-7.96871948 14.19811392 -8.97264038 15.85864195 -9.75 19.875 C-8.7998606 23.83391418 -7.40946129 24.88938111 -4 27 C-0.23099417 28.88450291 4.81667111 27.90038419 8.99609375 27.69726562 C17.02299874 27.5175588 22.3732716 30.56265853 28.6875 35.3125 C33.63935697 38.89354742 38.86329419 41.6715683 44.3125 44.421875 C47 46 47 46 49 49 C47.35 49.66 45.7 50.32 44 51 C44 51.66 44 52.32 44 53 C45.485 53.495 45.485 53.495 47 54 C47.33 53.01 47.66 52.02 48 51 C49.65 51.33 51.3 51.66 53 52 C52.01 55.3 51.02 58.6 50 62 C48.39125 61.731875 46.7825 61.46375 45.125 61.1875 C38.38663109 60.57201435 32.89404674 62.11041357 26.58447266 64.25854492 C21.19184808 66.00739051 16.5560552 66.3897335 11 65 C8.6875 63.3125 8.6875 63.3125 7 61 C6.2575 60.01 5.515 59.02 4.75 58 C3 55 3 55 3 51 C1.515 50.505 1.515 50.505 0 50 C1.485 49.505 1.485 49.505 3 49 C-1.29 48.67 -5.58 48.34 -10 48 C-10 47.34 -10 46.68 -10 46 C-5.05110469 43.8348583 -0.06892183 41.86749751 5 40 C3.69675781 39.81824219 3.69675781 39.81824219 2.3671875 39.6328125 C1.21476562 39.46523437 0.06234375 39.29765625 -1.125 39.125 C-2.26195312 38.96257812 -3.39890625 38.80015625 -4.5703125 38.6328125 C-12.41842071 37.18475609 -17.29245502 34.53056485 -22 28 C-23.04846984 25.04832947 -22.94956821 22.97104163 -22 20 C-18.86697646 13.83381024 -7.27187048 0 0 0 Z " fill="#0EC80D" transform="translate(336,95)"/>
<path d="M0 0 C0.66 0 1.32 0 2 0 C2.15855469 0.67804688 2.31710937 1.35609375 2.48046875 2.0546875 C3.98873573 8.07108947 5.98109291 13.29301576 8.85546875 18.78125 C11.27877653 23.47899341 12.62676145 26.86944466 11 32 C10.05930402 34.36659305 9.04768835 36.67686496 8 39 C8.556875 39.226875 9.11375 39.45375 9.6875 39.6875 C15.30260146 42.87444948 17.87332448 47.02505448 20 53 C20.2475 54.258125 20.495 55.51625 20.75 56.8125 C22.0489839 62.38417476 25.62833805 66.49759777 29 71 C30.15159785 72.64180504 31.29749213 74.28762623 32.4375 75.9375 C35.6970236 80.61195316 39.0811666 85.18812388 42.49609375 89.75 C44 92 44 92 44 94 C38.39 94 32.78 94 27 94 C27 87 27 87 28 84 C26.35 84 24.7 84 23 84 C22.773125 82.88625 22.54625 81.7725 22.3125 80.625 C20.98586877 75.33716003 18.59895837 70.76475702 16 66 C15.64164062 65.28457031 15.28328125 64.56914062 14.9140625 63.83203125 C11.61798674 57.78922568 6.76709374 54.58343689 1 51 C1.32613281 50.319375 1.65226562 49.63875 1.98828125 48.9375 C3.18344795 45.46736347 3.23093108 42.66400402 3.1875 39 C3.18105469 37.80375 3.17460937 36.6075 3.16796875 35.375 C3.02289218 32.45997311 2.67064853 29.83281939 2 27 C1.82984375 27.71285156 1.6596875 28.42570312 1.484375 29.16015625 C-0.6773716 37.70365478 -3.15473777 44.05543017 -10 50 C-10.66 50 -11.32 50 -12 50 C-11.00101675 47.99307401 -9.99532635 45.99097016 -8.96484375 44 C-8.62582031 43.34 -8.28679687 42.68 -7.9375 42 C-7.59589844 41.34 -7.25429688 40.68 -6.90234375 40 C-5.26778964 36.37709219 -4.86520736 33.03100089 -4.75390625 29.078125 C-4.72103516 28.13453125 -4.68816406 27.1909375 -4.65429688 26.21875 C-4.59358528 24.2553111 -4.53623821 22.29176499 -4.48242188 20.328125 C-4.22578513 13.20040253 -3.67880496 6.3065228 0 0 Z " fill="#1AA519" transform="translate(362,169)"/>
<path d="M0 0 C-1.04618508 4.41722591 -2.93161874 7.37353086 -5.625 10.9375 C-7.96871948 14.19811392 -8.97264038 15.85864195 -9.75 19.875 C-8.7998606 23.83391418 -7.40946129 24.88938111 -4 27 C-0.23099417 28.88450291 4.81667111 27.90038419 8.99609375 27.69726562 C16.90220955 27.52026303 22.35314819 30.42033072 28.5 35.25 C29.1703125 35.77078125 29.840625 36.2915625 30.53125 36.828125 C31.25828125 37.40820312 31.25828125 37.40820312 32 38 C31.01 38.495 31.01 38.495 30 39 C29.01 38.505 29.01 38.505 28 38 C28.27617533 39.94074861 28.27617533 39.94074861 29 42 C29.99 42.66 30.98 43.32 32 44 C32 44.66 32 45.32 32 46 C29.3753399 46.19430855 26.75053235 46.38073238 24.125 46.5625 C23.00544922 46.64661133 23.00544922 46.64661133 21.86328125 46.73242188 C16.2265625 47.11328125 16.2265625 47.11328125 14 46 C13.375 43.4375 13.375 43.4375 13 41 C13.66 41 14.32 41 15 41 C14.67 40.34 14.34 39.68 14 39 C13.01 38.67 12.02 38.34 11 38 C10.77570313 38.63421875 10.55140625 39.2684375 10.3203125 39.921875 C9 42 9 42 6.6171875 42.828125 C5.71226562 42.96734375 4.80734375 43.1065625 3.875 43.25 C2.96492188 43.39953125 2.05484375 43.5490625 1.1171875 43.703125 C0.41851562 43.80109375 -0.28015625 43.8990625 -1 44 C-1 44.66 -1 45.32 -1 46 C2.465 46.495 2.465 46.495 6 47 C5.34 48.32 4.68 49.64 4 51 C2.68 50.67 1.36 50.34 0 50 C1.485 49.505 1.485 49.505 3 49 C-1.29 48.67 -5.58 48.34 -10 48 C-10 47.34 -10 46.68 -10 46 C-5.05110469 43.8348583 -0.06892183 41.86749751 5 40 C3.69675781 39.81824219 3.69675781 39.81824219 2.3671875 39.6328125 C1.21476562 39.46523437 0.06234375 39.29765625 -1.125 39.125 C-2.26195312 38.96257812 -3.39890625 38.80015625 -4.5703125 38.6328125 C-12.41842071 37.18475609 -17.29245502 34.53056485 -22 28 C-23.04846984 25.04832947 -22.94956821 22.97104163 -22 20 C-18.86697646 13.83381024 -7.27187048 0 0 0 Z " fill="#16C214" transform="translate(336,95)"/>
<path d="M0 0 C0.66 0.33 1.32 0.66 2 1 C2 1.99 2 2.98 2 4 C2.556875 3.814375 3.11375 3.62875 3.6875 3.4375 C6.47604733 2.90993699 8.26517373 3.26626612 11 4 C12.3303125 4.2784375 12.3303125 4.2784375 13.6875 4.5625 C16 6 16 6 16.58203125 7.83984375 C17 10 17 10 17.25 12.125 C17.4975 12.74375 17.745 13.3625 18 14 C18.73734375 14.27714844 19.4746875 14.55429688 20.234375 14.83984375 C24.06932823 16.44857413 25.89407771 19.28607513 28.25 22.5625 C29.12997082 23.75147791 30.01016753 24.94028867 30.890625 26.12890625 C31.58671875 27.07636719 32.2828125 28.02382812 33 29 C33.33 29.33 33.66 29.66 34 30 C34.68971332 37.15448888 31.07028407 41.44266017 27 47 C24.375 49.9375 24.375 49.9375 22 52 C21.278125 52.763125 20.55625 53.52625 19.8125 54.3125 C15.64993191 56.81004085 11.73793546 56.33119549 7 56 C7.18930795 47.9458074 7.18930795 47.9458074 10.25 44.375 C13 43 13 43 15.6875 43.1875 C18 44 18 44 20 45 C21.4216319 41.6828589 22.39009109 38.55780196 23 35 C20.23806021 33.3156352 17.45619138 31.69914292 14.625 30.1328125 C14.03203125 29.80410156 13.4390625 29.47539062 12.828125 29.13671875 C11.61267015 28.46406318 10.39390824 27.79734783 9.171875 27.13671875 C5.15694104 24.8935926 1.95018788 22.5413304 -1 19 C-1.5234375 16.89453125 -1.5234375 16.89453125 -1.375 14.8125 C-1.33117187 14.04679688 -1.28734375 13.28109375 -1.2421875 12.4921875 C-1.16226562 11.66976562 -1.08234375 10.84734375 -1 10 C-0.92007812 9.07445312 -0.84015625 8.14890625 -0.7578125 7.1953125 C-0.53320638 4.79270763 -0.28019483 2.39666651 0 0 Z " fill="#16AE15" transform="translate(312,201)"/>
<path d="M0 0 C0.12461569 4.12573806 0.21480904 8.25073131 0.2746582 12.37792969 C0.29963412 13.77851469 0.33362817 15.17897161 0.37719727 16.57910156 C0.83571856 31.70491001 0.83571856 31.70491001 -5 38 C-6.65329552 39.66083334 -8.3597038 41.27123986 -10.125 42.8125 C-15.26129349 47.76562701 -16.93331287 52.0447645 -18 59 C-18.226875 60.216875 -18.45375 61.43375 -18.6875 62.6875 C-18.790625 63.450625 -18.89375 64.21375 -19 65 C-18.401875 65.103125 -17.80375 65.20625 -17.1875 65.3125 C-14.63994217 66.11316103 -13.58475902 66.86057532 -12 69 C-12 70.32 -12 71.64 -12 73 C-16.95 73 -21.9 73 -27 73 C-26.67 71.35 -26.34 69.7 -26 68 C-26.66 68 -27.32 68 -28 68 C-27.55065099 65.70567681 -27.09194559 63.41424447 -26.6171875 61.125 C-26.18266444 58.92488325 -25.79634596 56.71497167 -25.4453125 54.5 C-24.01392623 46.30045393 -21.99623696 41.71948756 -16 36 C-14.87011993 33.74023987 -14.84855435 32.4043776 -14.7890625 29.89453125 C-14.76070312 29.07533203 -14.73234375 28.25613281 -14.703125 27.41210938 C-14.65163469 25.69876945 -14.60719495 23.98520099 -14.5703125 22.27148438 C-14.30267045 15.12878715 -12.86766349 9.62647385 -8 4.125 C-7.505 3.55007812 -7.01 2.97515625 -6.5 2.3828125 C-4.49190247 0.53159759 -2.71624521 0 0 0 Z " fill="#179316" transform="translate(255,191)"/>
<path d="M0 0 C-0.33 0.99 -0.66 1.98 -1 3 C-1.845625 3.4125 -2.69125 3.825 -3.5625 4.25 C-7.32730408 6.16662753 -9.94371249 8.47979933 -13.05078125 11.296875 C-15.53710586 13.4692949 -18.2277043 15.21340944 -21 17 C-21.78375 17.680625 -22.5675 18.36125 -23.375 19.0625 C-26.08716649 21.06433717 -28.69163582 22.02126608 -31.83740234 23.16333008 C-35.22457699 24.47376669 -38.40466635 26.14127461 -41.625 27.8125 C-50.00622665 32.08064458 -58.55818051 35.76193755 -67.2578125 39.33984375 C-79.21891166 43.53361991 -79.21891166 43.53361991 -88 52 C-88.75 54.5 -88.75 54.5 -88 57 C-87.154375 57.845625 -86.30875 58.69125 -85.4375 59.5625 C-84.633125 60.366875 -83.82875 61.17125 -83 62 C-83.1875 64.3125 -83.1875 64.3125 -84 66 C-87.47661483 65.13084629 -89.68515727 64.28170139 -92.375 61.875 C-94.46581353 58.17586837 -94.7689278 55.10364624 -94 51 C-90.18195004 42.69989139 -81.61621378 38.97241317 -73.46875 35.9296875 C-71.09808206 35.03693596 -68.80588475 34.04739131 -66.5 33 C-63.49093133 31.63700722 -60.46629817 30.41306268 -57.375 29.25 C-52.17272512 27.20653991 -47.32754273 24.60037512 -42.44091797 21.90527344 C-39.41264795 20.24348701 -36.40223909 18.70339362 -33.21484375 17.3671875 C-29.79449813 15.91260552 -27.08264537 14.07485746 -24 12 C-22.21445372 11.03031102 -20.42212001 10.07306744 -18.625 9.125 C-14.30323113 6.82318832 -10.56271836 4.28955982 -6.8515625 1.1015625 C-4.46465595 -0.31849583 -2.72835371 -0.19689151 0 0 Z " fill="#44B044" transform="translate(323,135)"/>
<path d="M0 0 C1.32 0 2.64 0 4 0 C4 1.98 4 3.96 4 6 C5.32 6 6.64 6 8 6 C8 17.55 8 29.1 8 41 C6.68 41 5.36 41 4 41 C4 44.63 4 48.26 4 52 C2.68 52 1.36 52 0 52 C0 48.37 0 44.74 0 41 C-1.65 41 -3.3 41 -5 41 C-5 29.45 -5 17.9 -5 6 C-3.35 6 -1.7 6 0 6 C0 4.02 0 2.04 0 0 Z " fill="#13AB12" transform="translate(284,171)"/>
<path d="M0 0 C0.99 0 1.98 0 3 0 C3 1.65 3 3.3 3 5 C4.65 5.33 6.3 5.66 8 6 C8 17.88 8 29.76 8 42 C6.35 42 4.7 42 3 42 C3 44.97 3 47.94 3 51 C2.01 51 1.02 51 0 51 C0 47.7 0 44.4 0 41 C-1.65 41 -3.3 41 -5 41 C-5.495 23.675 -5.495 23.675 -6 6 C-4.02 6 -2.04 6 0 6 C0 4.02 0 2.04 0 0 Z " fill="#0F9F0E" transform="translate(265,185)"/>
<path d="M0 0 C1.32 0 2.64 0 4 0 C4 1.98 4 3.96 4 6 C5.32 6 6.64 6 8 6 C8 17.22 8 28.44 8 40 C6.35 40 4.7 40 3 40 C3 43.63 3 47.26 3 51 C2.01 51 1.02 51 0 51 C0 47.37 0 43.74 0 40 C-1.32 40 -2.64 40 -4 40 C-5.05253638 28.64764338 -5.10313358 17.39053108 -5 6 C-3.35 6 -1.7 6 0 6 C0 4.02 0 2.04 0 0 Z " fill="#0DB70C" transform="translate(304,157)"/>
<path d="M0 0 C0.66 0 1.32 0 2 0 C2.15855469 0.67804688 2.31710937 1.35609375 2.48046875 2.0546875 C3.98873573 8.07108947 5.98109291 13.29301576 8.85546875 18.78125 C11.27877653 23.47899341 12.62676145 26.86944466 11 32 C10.05930402 34.36659305 9.04768835 36.67686496 8 39 C9.485 39.495 9.485 39.495 11 40 C8.50907189 41.24546405 7.58919267 40.7767578 5 40 C4.67 40.66 4.34 41.32 4 42 C3.34 37.05 2.68 32.1 2 27 C1.5875 28.670625 1.175 30.34125 0.75 32.0625 C-1.28595977 39.47377413 -4.07351812 44.85331837 -10 50 C-10.66 50 -11.32 50 -12 50 C-11.00101675 47.99307401 -9.99532635 45.99097016 -8.96484375 44 C-8.62582031 43.34 -8.28679687 42.68 -7.9375 42 C-7.59589844 41.34 -7.25429688 40.68 -6.90234375 40 C-5.26778964 36.37709219 -4.86520736 33.03100089 -4.75390625 29.078125 C-4.72103516 28.13453125 -4.68816406 27.1909375 -4.65429688 26.21875 C-4.59358528 24.2553111 -4.53623821 22.29176499 -4.48242188 20.328125 C-4.22578513 13.20040253 -3.67880496 6.3065228 0 0 Z " fill="#24C323" transform="translate(362,169)"/>
<path d="M0 0 C1.17165319 0.9102844 2.3402161 1.82464051 3.5 2.75 C2.84 3.08 2.18 3.41 1.5 3.75 C0.84 3.42 0.18 3.09 -0.5 2.75 C-0.22382467 4.69074861 -0.22382467 4.69074861 0.5 6.75 C1.49 7.41 2.48 8.07 3.5 8.75 C3.5 9.41 3.5 10.07 3.5 10.75 C0.8753399 10.94430855 -1.74946765 11.13073238 -4.375 11.3125 C-5.12136719 11.36857422 -5.86773437 11.42464844 -6.63671875 11.48242188 C-12.2734375 11.86328125 -12.2734375 11.86328125 -14.5 10.75 C-15.125 8.1875 -15.125 8.1875 -15.5 5.75 C-14.84 5.75 -14.18 5.75 -13.5 5.75 C-13.83 5.09 -14.16 4.43 -14.5 3.75 C-15.49 3.42 -16.48 3.09 -17.5 2.75 C-17.83644531 3.70132813 -17.83644531 3.70132813 -18.1796875 4.671875 C-19.5 6.75 -19.5 6.75 -21.8828125 7.578125 C-23.24019531 7.78695312 -23.24019531 7.78695312 -24.625 8 C-25.53507812 8.14953125 -26.44515625 8.2990625 -27.3828125 8.453125 C-28.43082031 8.60007813 -28.43082031 8.60007813 -29.5 8.75 C-29.5 9.41 -29.5 10.07 -29.5 10.75 C-27.19 11.08 -24.88 11.41 -22.5 11.75 C-23.16 13.07 -23.82 14.39 -24.5 15.75 C-25.82 15.42 -27.14 15.09 -28.5 14.75 C-27.51 14.42 -26.52 14.09 -25.5 13.75 C-29.79 13.42 -34.08 13.09 -38.5 12.75 C-38.5 12.09 -38.5 11.43 -38.5 10.75 C-33.55110469 8.5848583 -28.56892183 6.61749751 -23.5 4.75 C-26.47 4.42 -29.44 4.09 -32.5 3.75 C-32.5 3.42 -32.5 3.09 -32.5 2.75 C-29.2 2.42 -25.9 2.09 -22.5 1.75 C-22.83 0.43 -23.16 -0.89 -23.5 -2.25 C-23.17 -2.91 -22.84 -3.57 -22.5 -4.25 C-24.48 -4.25 -26.46 -4.25 -28.5 -4.25 C-28.5 -4.91 -28.5 -5.57 -28.5 -6.25 C-16.75181132 -8.72330288 -9.5016621 -7.03456387 0 0 Z " fill="#1BC71A" transform="translate(364.5,130.25)"/>
<path d="M0 0 C0.66 0 1.32 0 2 0 C1.49656013 7.02673515 0.95812032 14.01940909 0 21 C-1.0725 20.731875 -2.145 20.46375 -3.25 20.1875 C-4.4875 20.125625 -5.725 20.06375 -7 20 C-9.01208716 22.26293596 -9.01208716 22.26293596 -11 25 C-12.5988106 26.48962353 -14.2462353 27.92873798 -15.9375 29.3125 C-16.77152344 30.00988281 -17.60554688 30.70726563 -18.46484375 31.42578125 C-21.28058619 33.17423149 -22.75119287 33.34289735 -26 33 C-26.66 31.68 -27.32 30.36 -28 29 C-27.02160156 28.22076172 -27.02160156 28.22076172 -26.0234375 27.42578125 C-23.34509047 25.28863413 -20.67137292 23.14585693 -18 21 C-17.02740234 20.22076172 -17.02740234 20.22076172 -16.03515625 19.42578125 C-13.08231289 17.08302515 -13.08231289 17.08302515 -11 14 C-12.65 13.67 -14.3 13.34 -16 13 C-14.49791355 8.7378297 -11.8607639 7.48171492 -8 5.375 C-3.7098953 3.07345276 -3.7098953 3.07345276 0 0 Z " fill="#22C921" transform="translate(392,96)"/>
<path d="M0 0 C4.10871679 0.24168922 6.45385242 0.57797687 9.75 3.125 C14.66862728 9.40991264 16.26603852 16.04418148 16 24 C15.34 24.99 14.68 25.98 14 27 C9.67217375 25.50764612 8.96883362 22.93766723 7 19 C3.63561012 15.90839849 -0.17821203 13.48860612 -4 11 C-2.68 7.37 -1.36 3.74 0 0 Z " fill="#1AB719" transform="translate(367,209)"/>
<path d="M0 0 C-0.33 0.886875 -0.66 1.77375 -1 2.6875 C-1.94739771 5.82575491 -2.42169615 7.7788511 -2 11 C-0.21243228 12.69778948 -0.21243228 12.69778948 2.1875 13.9375 C6.43976934 16.53312813 9.13300535 18.93071728 12 23 C12 23.66 12 24.32 12 25 C7.05 25 2.1 25 -3 25 C-3.66 23.02 -4.32 21.04 -5 19 C-7.00761865 16.77459234 -9.16118721 14.89794881 -11.41796875 12.9296875 C-13 11 -13 11 -13.01171875 8.9921875 C-11.66323779 6.3368775 -9.99293865 5.04319626 -7.625 3.25 C-6.83351563 2.63640625 -6.04203125 2.0228125 -5.2265625 1.390625 C-3 0 -3 0 0 0 Z " fill="#1F981E" transform="translate(292,239)"/>
<path d="M0 0 C-0.33 0.99 -0.66 1.98 -1 3 C-1.845625 3.4125 -2.69125 3.825 -3.5625 4.25 C-7.32730408 6.16662753 -9.94371249 8.47979933 -13.05078125 11.296875 C-15.53710586 13.4692949 -18.2277043 15.21340944 -21 17 C-21.78375 17.680625 -22.5675 18.36125 -23.375 19.0625 C-26.1541183 21.11375398 -28.57344634 22.03487708 -31.8046875 23.140625 C-35.10055007 24.43082031 -38.07503911 26.21504923 -41.1171875 28.01171875 C-43 29 -43 29 -45 29 C-45 28.01 -45 27.02 -45 26 C-45.99 26 -46.98 26 -48 26 C-48 26.66 -48 27.32 -48 28 C-49.98 28.33 -51.96 28.66 -54 29 C-50.55345929 26.07738397 -47.18439602 23.91447858 -43.125 21.9375 C-42.073125 21.42316406 -41.02125 20.90882813 -39.9375 20.37890625 C-37.6815669 19.31993765 -35.43071003 18.31684138 -33.125 17.375 C-29.76905576 15.89838453 -27.04153281 14.04718554 -24 12 C-22.21445372 11.03031102 -20.42212001 10.07306744 -18.625 9.125 C-14.30323113 6.82318832 -10.56271836 4.28955982 -6.8515625 1.1015625 C-4.46465595 -0.31849583 -2.72835371 -0.19689151 0 0 Z " fill="#3EBB3D" transform="translate(323,135)"/>
<path d="M0 0 C-2.66168906 5.52812344 -5.47032615 9.79387428 -10 14 C-11.0828125 15.1446875 -11.0828125 15.1446875 -12.1875 16.3125 C-16.35006809 18.81004085 -20.26206454 18.33119549 -25 18 C-24.81069205 9.9458074 -24.81069205 9.9458074 -21.75 6.375 C-19 5 -19 5 -16.3125 5.1875 C-14 6 -14 6 -12 7 C-11.62875 5.7934375 -11.62875 5.7934375 -11.25 4.5625 C-10 2 -10 2 -8.125 1.25 C-7.073125 1.12625 -7.073125 1.12625 -6 1 C-5.29875 0.814375 -4.5975 0.62875 -3.875 0.4375 C-2 0 -2 0 0 0 Z " fill="#1BA11A" transform="translate(344,239)"/>
<path d="M0 0 C3.93673644 1.31224548 6.22719294 2.91910327 9 6 C7.35 6.66 5.7 7.32 4 8 C4 8.66 4 9.32 4 10 C4.99 10.33 5.98 10.66 7 11 C7.33 10.01 7.66 9.02 8 8 C9.65 8.33 11.3 8.66 13 9 C12.01 12.3 11.02 15.6 10 19 C3.07 18.505 3.07 18.505 -4 18 C-4.33 16.68 -4.66 15.36 -5 14 C-4.01 13.67 -3.02 13.34 -2 13 C-2 12.34 -2 11.68 -2 11 C-2.66 10.67 -3.32 10.34 -4 10 C-1.125 4.125 -1.125 4.125 0 3 C0 2.01 0 1.02 0 0 Z " fill="#15C714" transform="translate(376,138)"/>
<path d="M0 0 C0.66 0 1.32 0 2 0 C2.84549638 2.20432985 3.67642814 4.41248533 4.5 6.625 C4.9640625 7.85476562 5.428125 9.08453125 5.90625 10.3515625 C6.94316919 13.81042866 7.22019382 16.42185036 7 20 C5 19 3 18 1 17 C1.33 18.32 1.66 19.64 2 21 C0.68 20.67 -0.64 20.34 -2 20 C-2.37125 18.329375 -2.37125 18.329375 -2.75 16.625 C-3.59365982 12.95791272 -3.59365982 12.95791272 -6.0625 11.6875 C-6.701875 11.460625 -7.34125 11.23375 -8 11 C-8.33 10.34 -8.66 9.68 -9 9 C-7.68 9 -6.36 9 -5 9 C-5.33 8.01 -5.66 7.02 -6 6 C-5.38125 5.7525 -4.7625 5.505 -4.125 5.25 C-1.64931313 3.79371361 -1.04874998 2.62187494 0 0 Z " fill="#11B310" transform="translate(331,195)"/>
<path d="M0 0 C-1.04618508 4.41722591 -2.93161874 7.37353086 -5.625 10.9375 C-7.94303296 14.16722794 -8.96936176 15.84425563 -9.75 19.8125 C-8.80820641 23.81512275 -7.13037972 25.41743673 -4 28 C-4.99 28.33 -5.98 28.66 -7 29 C-10.85294214 25.14705786 -11.51671797 22.21579458 -11.82421875 16.98828125 C-11.88404417 14.9263215 -11.88404417 14.9263215 -13 13 C-15.97283934 16.35643152 -17.35378164 18.58417455 -18 23 C-18.64389782 25.00744615 -19.30562253 27.00945124 -20 29 C-20.66 28.67 -21.32 28.34 -22 28 C-22.51601541 23.18385613 -22.54419326 20.13583007 -19.6875 16.125 C-6.3139881 0 -6.3139881 0 0 0 Z " fill="#2CC32B" transform="translate(336,95)"/>
<path d="M0 0 C1.65 0.99 3.3 1.98 5 3 C4.01 3.495 4.01 3.495 3 4 C2.34 3.67 1.68 3.34 1 3 C1.27617533 4.94074861 1.27617533 4.94074861 2 7 C2.99 7.66 3.98 8.32 5 9 C5 9.66 5 10.32 5 11 C2.3753399 11.19430855 -0.24946765 11.38073238 -2.875 11.5625 C-3.99455078 11.64661133 -3.99455078 11.64661133 -5.13671875 11.73242188 C-10.7734375 12.11328125 -10.7734375 12.11328125 -13 11 C-13.625 8.4375 -13.625 8.4375 -14 6 C-13.34 6 -12.68 6 -12 6 C-12 5.01 -12 4.02 -12 3 C-11.30132812 3.03480469 -10.60265625 3.06960937 -9.8828125 3.10546875 C-8.97273438 3.13253906 -8.06265625 3.15960938 -7.125 3.1875 C-6.22007812 3.22230469 -5.31515625 3.25710937 -4.3828125 3.29296875 C-3.59648437 3.19628906 -2.81015625 3.09960938 -2 3 C-1.34 2.01 -0.68 1.02 0 0 Z " fill="#20C91F" transform="translate(363,130)"/>
<path d="M0 0 C0.33 0 0.66 0 1 0 C1.33 2.31 1.66 4.62 2 7 C2.66 6.67 3.32 6.34 4 6 C4.08138426 8.87557703 4.14067851 11.74882262 4.1875 14.625 C4.22520508 15.83736328 4.22520508 15.83736328 4.26367188 17.07421875 C4.35239558 24.34956228 2.29184818 28.90206318 -2.5625 34.375 C-3.16191406 35.06335938 -3.76132812 35.75171875 -4.37890625 36.4609375 C-6 38 -6 38 -8 38 C-7.00101675 35.99307401 -5.99532635 33.99097016 -4.96484375 32 C-4.62582031 31.34 -4.28679687 30.68 -3.9375 30 C-3.59589844 29.34 -3.25429688 28.68 -2.90234375 28 C-1.2329253 24.29981712 -0.84782607 20.83229772 -0.68359375 16.796875 C-0.64169922 15.8171875 -0.59980469 14.8375 -0.55664062 13.828125 C-0.51732422 12.81234375 -0.47800781 11.7965625 -0.4375 10.75 C-0.39431641 9.71875 -0.35113281 8.6875 -0.30664062 7.625 C-0.20074318 5.0834613 -0.09866557 2.54182804 0 0 Z " fill="#1CB51B" transform="translate(358,181)"/>
<path d="M0 0 C-0.33 0.886875 -0.66 1.77375 -1 2.6875 C-1.92135807 5.73949862 -2.34949702 7.8545268 -2 11 C-1.34 11.66 -0.68 12.32 0 13 C-1.32 13 -2.64 13 -4 13 C-4 13.99 -4 14.98 -4 16 C-4.99 16.33 -5.98 16.66 -7 17 C-8.03531726 16.09972412 -9.05294165 15.17906965 -10.0625 14.25 C-10.63097656 13.73953125 -11.19945312 13.2290625 -11.78515625 12.703125 C-13 11 -13 11 -12.95703125 9.03125 C-11.67341349 6.3068368 -10.01725703 5.06161212 -7.625 3.25 C-6.83351563 2.63640625 -6.04203125 2.0228125 -5.2265625 1.390625 C-3 0 -3 0 0 0 Z " fill="#229D21" transform="translate(292,239)"/>
<path d="M0 0 C0.66 0 1.32 0 2 0 C2 0.66 2 1.32 2 2 C2.66 2 3.32 2 4 2 C3.84402344 3.08796875 3.68804687 4.1759375 3.52734375 5.296875 C2.74020011 11.57742357 2.65294631 17.89686849 2.48242188 24.21875 C2.44826172 25.16234375 2.41410156 26.1059375 2.37890625 27.078125 C2.3538501 27.92793945 2.32879395 28.77775391 2.30297852 29.65332031 C2 32 2 32 0 36 C-0.33 28.08 -0.66 20.16 -1 12 C-1.33 16.95 -1.66 21.9 -2 27 C-2.33 27 -2.66 27 -3 27 C-3.40757013 8.74991551 -3.40757013 8.74991551 -1 1 C-0.67 0.67 -0.34 0.34 0 0 Z " fill="#D3ECD3" transform="translate(356,171)"/>
<path d="M0 0 C1.98 0 3.96 0 6 0 C6 0.66 6 1.32 6 2 C7.98 2 9.96 2 12 2 C12 3.98 12 5.96 12 8 C12.66 8.33 13.32 8.66 14 9 C11.72975032 9.08097324 9.45867925 9.13917704 7.1875 9.1875 C5.29064453 9.23970703 5.29064453 9.23970703 3.35546875 9.29296875 C0 9 0 9 -1.94921875 7.48828125 C-2.29597656 6.99714844 -2.64273437 6.50601563 -3 6 C-2.01 4.02 -1.02 2.04 0 0 Z " fill="#0DC50C" transform="translate(330,124)"/>
<path d="M0 0 C0.33 1.32 0.66 2.64 1 4 C0.01 4.33 -0.98 4.66 -2 5 C-2 20.51 -2 36.02 -2 52 C-3.65 52 -5.3 52 -7 52 C-5.515 51.505 -5.515 51.505 -4 51 C-4.00888245 50.44956024 -4.01776489 49.89912048 -4.0269165 49.33200073 C-4.11559291 43.58927828 -4.17581803 37.84675117 -4.21972656 32.10351562 C-4.23980888 29.96183366 -4.26708037 27.8202063 -4.30175781 25.67871094 C-4.35042398 22.59556585 -4.3730029 19.51314738 -4.390625 16.4296875 C-4.42159271 14.99965897 -4.42159271 14.99965897 -4.45318604 13.54074097 C-4.45514624 7.69834056 -3.79258112 4.50779106 0 0 Z " fill="#50C44F" transform="translate(321,149)"/>
<path d="M0 0 C0.33 0 0.66 0 1 0 C1 1.65 1 3.3 1 5 C2.65 5.33 4.3 5.66 6 6 C6 17.88 6 29.76 6 42 C4.35 42 2.7 42 1 42 C1 44.97 1 47.94 1 51 C0.67 51 0.34 51 0 51 C0 47.7 0 44.4 0 41 C1.32 41 2.64 41 4 41 C4 29.78 4 18.56 4 7 C2.68 7 1.36 7 0 7 C0 4.69 0 2.38 0 0 Z " fill="#69B669" transform="translate(267,185)"/>
<path d="M0 0 C1.32 0 2.64 0 4 0 C4 1.98 4 3.96 4 6 C5.32 6 6.64 6 8 6 C8 17.55 8 29.1 8 41 C6.68 41 5.36 41 4 41 C4 44.63 4 48.26 4 52 C2.68 52 1.36 52 0 52 C0 48.37 0 44.74 0 41 C3.465 40.505 3.465 40.505 7 40 C7 29.11 7 18.22 7 7 C5.68 7 4.36 7 3 7 C3 6.34 3 5.68 3 5 C2.01 5.33 1.02 5.66 0 6 C0 4.02 0 2.04 0 0 Z " fill="#57AD56" transform="translate(284,171)"/>
<path d="M0 0 C8.13544686 -0.28545428 15.97649696 0.81603117 24 2 C23.49396008 4.16874252 23.00016187 5.99967627 22 8 C18.26512223 7.5020163 16.18762365 7.12508244 13 5 C10.78610171 4.39896659 8.55397421 3.86324191 6.3125 3.375 C5.13300781 3.11460937 3.95351563 2.85421875 2.73828125 2.5859375 C1.83464844 2.39257812 0.93101562 2.19921875 0 2 C0 1.34 0 0.68 0 0 Z " fill="#50A750" transform="translate(281,230)"/>
<path d="M0 0 C1.32 0 2.64 0 4 0 C4 1.98 4 3.96 4 6 C5.32 6 6.64 6 8 6 C8 17.22 8 28.44 8 40 C7.67 40 7.34 40 7 40 C7 29.11 7 18.22 7 7 C3.37 7 -0.26 7 -4 7 C-4 13.27 -4 19.54 -4 26 C-4.33 26 -4.66 26 -5 26 C-5 19.4 -5 12.8 -5 6 C-3.35 6 -1.7 6 0 6 C0 4.02 0 2.04 0 0 Z " fill="#4FBA4F" transform="translate(304,157)"/>
<path d="M0 0 C1.65 0.33 3.3 0.66 5 1 C4.01 4.3 3.02 7.6 2 11 C-4.93 10.505 -4.93 10.505 -12 10 C-12 9.01 -12 8.02 -12 7 C-9.36 7 -6.72 7 -4 7 C-4 6.34 -4 5.68 -4 5 C-4 4.01 -4 3.02 -4 2 C-3.01 2.33 -2.02 2.66 -1 3 C-0.67 2.01 -0.34 1.02 0 0 Z " fill="#36C535" transform="translate(384,146)"/>
<path d="M0 0 C0.66 0 1.32 0 2 0 C1.690625 1.155 1.38125 2.31 1.0625 3.5 C-0.14067311 8.77545134 -0.39034407 14.02358637 -0.57006836 19.4140625 C-0.73898667 23.35708471 -1.18309909 25.36619819 -3 29 C-3.33 23.39 -3.66 17.78 -4 12 C-4.99 13.32 -5.98 14.64 -7 16 C-5.89022747 9.71128902 -4.46242088 4.74132218 0 0 Z " fill="#50BF50" transform="translate(354,173)"/>
<path d="M0 0 C0.99 0 1.98 0 3 0 C3 1.32 3 2.64 3 4 C-0.10045423 5.34208754 -3.20592989 6.67213754 -6.3125 8 C-7.19357422 8.3815625 -8.07464844 8.763125 -8.98242188 9.15625 C-9.82998047 9.5171875 -10.67753906 9.878125 -11.55078125 10.25 C-12.33106689 10.58515625 -13.11135254 10.9203125 -13.9152832 11.265625 C-16 12 -16 12 -19 12 C-19 11.01 -19 10.02 -19 9 C-12.65074114 5.18344183 -7.48116133 2.28230797 0 2 C0 1.34 0 0.68 0 0 Z " fill="#19B118" transform="translate(275,161)"/>
<path d="M0 0 C-0.33 0.99 -0.66 1.98 -1 3 C-1.845625 3.4125 -2.69125 3.825 -3.5625 4.25 C-6.74609744 5.87074051 -8.47783697 7.31013404 -11 9.75 C-14.55170388 13.00800529 -14.55170388 13.00800529 -18.5 12.9375 C-19.325 12.628125 -20.15 12.31875 -21 12 C-17.2780437 7.79257114 -12.67950448 5.01625519 -8 2 C-4.77208445 -0.1519437 -3.71599191 -0.20086443 0 0 Z " fill="#37C036" transform="translate(323,135)"/>
<path d="M0 0 C-0.33 0.33 -0.66 0.66 -1 1 C1.31 1.33 3.62 1.66 6 2 C6 2.99 6 3.98 6 5 C4.56359829 5.19573608 3.12580496 5.38127816 1.6875 5.5625 C0.88699219 5.66691406 0.08648437 5.77132812 -0.73828125 5.87890625 C-3 6 -3 6 -6 5 C-6 4.01 -6 3.02 -6 2 C-7.0725 2.350625 -8.145 2.70125 -9.25 3.0625 C-12.78720743 3.94680186 -13.74811124 4.02880551 -17 3 C-14.73194205 2.30190555 -12.46133393 1.61628983 -10.1875 0.9375 C-9.54490234 0.73833984 -8.90230469 0.53917969 -8.24023438 0.33398438 C-3.33984375 -1.11328125 -3.33984375 -1.11328125 0 0 Z " fill="#C8E3C8" transform="translate(377,156)"/>
<path d="M0 0 C4.81430721 -0.56638908 7.20307814 1.17438373 11 4 C10.67 5.65 10.34 7.3 10 9 C9.34 8.67 8.68 8.34 8 8 C6.12943209 7.7724985 4.25314042 7.59037189 2.375 7.4375 C0.87066406 7.31181641 0.87066406 7.31181641 -0.6640625 7.18359375 C-1.43492187 7.12300781 -2.20578125 7.06242188 -3 7 C-2.01 6.34 -1.02 5.68 0 5 C-0.33 4.67 -0.66 4.34 -1 4 C-0.5625 1.9375 -0.5625 1.9375 0 0 Z " fill="#0BC80A" transform="translate(352,125)"/>
<path d="M0 0 C0.33 0 0.66 0 1 0 C1 1.65 1 3.3 1 5 C1.99 5.33 2.98 5.66 4 6 C6.25 7.8125 6.25 7.8125 8 10 C7.75 12.25 7.75 12.25 7 14 C3.84646071 13.15905619 1.53498981 12.49932382 -0.875 10.25 C-2.34153606 7.31692788 -2.35189617 5.23744478 -2 2 C-1.34 1.34 -0.68 0.68 0 0 Z " fill="#36A335" transform="translate(232,187)"/>
<path d="M0 0 C-1.47364199 4.51239341 -5.00863434 6.10481551 -8.9375 8.25 C-9.57107422 8.61351562 -10.20464844 8.97703125 -10.85742188 9.3515625 C-13.76316549 10.97706787 -15.61995588 12 -19 12 C-19 11.34 -19 10.68 -19 10 C-16.17152464 7.75517829 -13.06263208 5.90866737 -10 4 C-9.32324219 3.5771875 -8.64648438 3.154375 -7.94921875 2.71875 C-5.09361968 1.00661351 -3.38667905 0 0 0 Z " fill="#449744" transform="translate(263,232)"/>
<path d="M0 0 C-4.455 1.485 -4.455 1.485 -9 3 C-9 3.66 -9 4.32 -9 5 C-6.69 5.33 -4.38 5.66 -2 6 C-2.66 7.32 -3.32 8.64 -4 10 C-5.32 9.67 -6.64 9.34 -8 9 C-7.01 8.67 -6.02 8.34 -5 8 C-9.29 7.67 -13.58 7.34 -18 7 C-18 6.34 -18 5.68 -18 5 C-15.67305465 3.98196141 -13.34226131 2.98181254 -11 2 C-10.29359375 1.70222656 -9.5871875 1.40445313 -8.859375 1.09765625 C-3.34949622 -1.11649874 -3.34949622 -1.11649874 0 0 Z " fill="#50C54F" transform="translate(344,136)"/>
<path d="M0 0 C1.485 0.99 1.485 0.99 3 2 C3.99 1.67 4.98 1.34 6 1 C6.20140476 4.62528568 5.85776765 6.86501708 4 10 C4.99 10.33 5.98 10.66 7 11 C4.50907189 12.24546405 3.58919267 11.7767578 1 11 C0.67 11.66 0.34 12.32 0 13 C0 8.71 0 4.42 0 0 Z " fill="#15BB14" transform="translate(366,198)"/>
<path d="M0 0 C1.32 1.32 2.64 2.64 4 4 C1.48769424 8.74546643 -0.88587846 12.42721025 -5 16 C-5.66 16 -6.32 16 -7 16 C-6.00101675 13.99307401 -4.99532635 11.99097016 -3.96484375 10 C-3.62582031 9.34 -3.28679687 8.68 -2.9375 8 C-2.59589844 7.34 -2.25429688 6.68 -1.90234375 6 C-1.00591154 4.01310263 -0.46035098 2.12615708 0 0 Z " fill="#2CB62B" transform="translate(357,203)"/>
<path d="M0 0 C0 0.66 0 1.32 0 2 C-1.390625 3.25390625 -1.390625 3.25390625 -3.25 4.5625 C-3.85328125 4.99691406 -4.4565625 5.43132812 -5.078125 5.87890625 C-7.05581272 7.03255742 -8.76401078 7.55972779 -11 8 C-11.33 7.34 -11.66 6.68 -12 6 C-11 3.5 -11 3.5 -9 1 C-2.79207921 -1.3960396 -2.79207921 -1.3960396 0 0 Z " fill="#31BD30" transform="translate(306,147)"/>
<path d="M0 0 C0.99 0.33 1.98 0.66 3 1 C3 2.98 3 4.96 3 7 C1.8553125 7.2165625 1.8553125 7.2165625 0.6875 7.4375 C-2.08172908 7.9632594 -2.08172908 7.9632594 -5 9 C-5.66 8.67 -6.32 8.34 -7 8 C-7 7.01 -7 6.02 -7 5 C-7.99 4.67 -8.98 4.34 -10 4 C-5.25 4.875 -5.25 4.875 -3 6 C-2.690625 5.195625 -2.38125 4.39125 -2.0625 3.5625 C-1 1 -1 1 0 0 Z " fill="#31A930" transform="translate(335,240)"/>
<path d="M0 0 C0.33 0 0.66 0 1 0 C0.56826373 5.09448798 0.24599784 8.84512277 -3 13 C-3.66 13 -4.32 13 -5 13 C-5.33 10.03 -5.66 7.06 -6 4 C-4.35 3.67 -2.7 3.34 -1 3 C-0.67 2.01 -0.34 1.02 0 0 Z " fill="#26B326" transform="translate(350,202)"/>
<path d="M0 0 C0.66 1.98 1.32 3.96 2 6 C0 8 0 8 -2.625 8.125 C-3.40875 8.08375 -4.1925 8.0425 -5 8 C-5.66 6.68 -6.32 5.36 -7 4 C-2.25 0 -2.25 0 0 0 Z " fill="#2EC72D" transform="translate(371,121)"/>
<path d="M0 0 C0.66 0 1.32 0 2 0 C2.33 1.32 2.66 2.64 3 4 C-0.87564767 7.61139896 -0.87564767 7.61139896 -3 9 C-5.375 8.8125 -5.375 8.8125 -7 8 C-7 6.68 -7 5.36 -7 4 C-5.824375 3.566875 -5.824375 3.566875 -4.625 3.125 C-1.90328368 2.15087746 -1.90328368 2.15087746 0 0 Z " fill="#19C818" transform="translate(378,117)"/>
<path d="M0 0 C0.33 0.66 0.66 1.32 1 2 C1.66 2 2.32 2 3 2 C3 3.32 3 4.64 3 6 C6.63 6 10.26 6 14 6 C14.33 5.01 14.66 4.02 15 3 C15.33 4.65 15.66 6.3 16 8 C11.05 8 6.1 8 1 8 C1.33 6.35 1.66 4.7 2 3 C1.34 3 0.68 3 0 3 C0 2.01 0 1.02 0 0 Z " fill="#509A4F" transform="translate(227,256)"/>
<path d="M0 0 C0.66 0.33 1.32 0.66 2 1 C1.01 2.2684375 1.01 2.2684375 0 3.5625 C-2.25272405 7.43436947 -2.35177696 9.60278797 -2 14 C-2.66 12.68 -3.32 11.36 -4 10 C-4.66 11.98 -5.32 13.96 -6 16 C-6.33 16 -6.66 16 -7 16 C-7.42014232 9.90793639 -7.06715472 6.88058567 -3 2 C-2.01 1.34 -1.02 0.68 0 0 Z " fill="#47AC46" transform="translate(236,178)"/>
<path d="M0 0 C5.35048061 0.37328935 7.50912907 1.9957657 11 6 C10.39671875 5.98839844 9.7934375 5.97679687 9.171875 5.96484375 C8.37265625 5.95582031 7.5734375 5.94679687 6.75 5.9375 C5.96109375 5.92589844 5.1721875 5.91429687 4.359375 5.90234375 C2.09308998 5.99614694 0.1711105 6.36758937 -2 7 C-1.34 6.01 -0.68 5.02 0 4 C0.66 4 1.32 4 2 4 C1.34 2.68 0.68 1.36 0 0 Z " fill="#CAECCA" transform="translate(355,134)"/>
<path d="M0 0 C2.72426311 2.35277269 3.8141763 4.62496331 5 8 C3.02 8 1.04 8 -1 8 C-1.33 8.66 -1.66 9.32 -2 10 C-2.66 8.68 -3.32 7.36 -4 6 C-3.34 6 -2.68 6 -2 6 C-1.34 4.02 -0.68 2.04 0 0 Z " fill="#28B227" transform="translate(383,230)"/>
<path d="M0 0 C0.66 0.33 1.32 0.66 2 1 C-2.75 4 -2.75 4 -5 4 C-5 4.99 -5 5.98 -5 7 C-4.34 7.33 -3.68 7.66 -3 8 C-4.65 8.33 -6.3 8.66 -8 9 C-8 8.01 -8 7.02 -8 6 C-10.31 6.66 -12.62 7.32 -15 8 C-13.41169958 4.82339917 -10.19515574 4.13200316 -7.0625 2.8125 C-6.41603516 2.52697266 -5.76957031 2.24144531 -5.10351562 1.94726562 C-3.42886164 1.23253791 -1.71580039 0.60936911 0 0 Z " fill="#57B756" transform="translate(261,166)"/>
<path d="M0 0 C0.391875 0.495 0.78375 0.99 1.1875 1.5 C2.92660242 3.21126878 2.92660242 3.21126878 5.4375 3.3125 C8.0602702 2.99264998 9.74208944 2.33802108 12 1 C11.175 1.763125 10.35 2.52625 9.5 3.3125 C6.65944803 5.75434142 6.65944803 5.75434142 7 9 C2.56541027 7.6062718 0.12621626 5.39417765 -3 2 C-2.01 2 -1.02 2 0 2 C0 1.34 0 0.68 0 0 Z " fill="#C8E6C8" transform="translate(363,125)"/>
<path d="M0 0 C3.3 0 6.6 0 10 0 C9.67 1.65 9.34 3.3 9 5 C5.26512223 4.5020163 3.18762365 4.12508244 0 2 C0 1.34 0 0.68 0 0 Z " fill="#29A428" transform="translate(294,233)"/>
<path d="M0 0 C1.32 0 2.64 0 4 0 C4 1.98 4 3.96 4 6 C5.32 6 6.64 6 8 6 C8 10.29 8 14.58 8 19 C7.67 19 7.34 19 7 19 C7 15.04 7 11.08 7 7 C5.68 7 4.36 7 3 7 C3 6.34 3 5.68 3 5 C2.01 5.33 1.02 5.66 0 6 C0 4.02 0 2.04 0 0 Z " fill="#49B049" transform="translate(284,171)"/>
<path d="M0 0 C2.28805777 2.28805777 2.45582599 3.33275656 3.0625 6.4375 C3.58554517 9.06137121 4.15093007 11.45279021 5 14 C5.99 13.01 6.98 12.02 8 11 C7.67 12.98 7.34 14.96 7 17 C6.01 17.33 5.02 17.66 4 18 C4 17.01 4 16.02 4 15 C3.01 15 2.02 15 1 15 C0.67 10.05 0.34 5.1 0 0 Z " fill="#4DC34D" transform="translate(339,178)"/>
<path d="M0 0 C0.66 0 1.32 0 2 0 C2.33 0.66 2.66 1.32 3 2 C4.32 2 5.64 2 7 2 C7.66 1.34 8.32 0.68 9 0 C9.33 0.99 9.66 1.98 10 3 C12.97 3.495 12.97 3.495 16 4 C12.92859569 5.81205858 10.97222701 6.22518386 7.4375 5.8125 C6.67308594 5.73644531 5.90867187 5.66039062 5.12109375 5.58203125 C2.61165569 4.89343775 1.58478152 4.04046949 0 2 C0 1.34 0 0.68 0 0 Z " fill="#37C136" transform="translate(344,155)"/>
<path d="M0 0 C2.31 0.33 4.62 0.66 7 1 C6.01 1.495 6.01 1.495 5 2 C5 2.99 5 3.98 5 5 C4.38125 5.061875 3.7625 5.12375 3.125 5.1875 C0.72238859 5.828919 0.72238859 5.828919 -0.25 8.5625 C-0.4975 9.366875 -0.745 10.17125 -1 11 C-1.33 11 -1.66 11 -2 11 C-1.85892253 9.54119891 -1.71197585 8.08296449 -1.5625 6.625 C-1.48128906 5.81289062 -1.40007812 5.00078125 -1.31640625 4.1640625 C-1 2 -1 2 0 0 Z " fill="#0FB90E" transform="translate(367,209)"/>
<path d="M0 0 C0.515625 0.2475 1.03125 0.495 1.5625 0.75 C-0.91335238 3.40269897 -3.02776101 5.43010103 -6.4375 6.75 C-7.4275 6.75 -8.4175 6.75 -9.4375 6.75 C-9.4375 5.76 -9.4375 4.77 -9.4375 3.75 C-3.0375 -0.31153846 -3.0375 -0.31153846 0 0 Z " fill="#1BAB19" transform="translate(265.4375,166.25)"/>
<path d="M0 0 C0.33 0 0.66 0 1 0 C1 4.29 1 8.58 1 13 C0.01 12.67 -0.98 12.34 -2 12 C-2.05395478 10.37536158 -2.09277195 8.75021459 -2.125 7.125 C-2.14820313 6.22007812 -2.17140625 5.31515625 -2.1953125 4.3828125 C-2 2 -2 2 0 0 Z " fill="#0EBC0D" transform="translate(361,187)"/>
<path d="M0 0 C0.66 0 1.32 0 2 0 C2.38922918 1.28745036 2.76098036 2.58019597 3.125 3.875 C3.33382813 4.59429687 3.54265625 5.31359375 3.7578125 6.0546875 C3.83773438 6.69664062 3.91765625 7.33859375 4 8 C3.34 8.66 2.68 9.32 2 10 C1.01 10 0.02 10 -1 10 C-1.125 2.25 -1.125 2.25 0 0 Z " fill="#09B708" transform="translate(320,187)"/>
<path d="M0 0 C-0.99 3.63 -1.98 7.26 -3 11 C-3.33 11 -3.66 11 -4 11 C-4 9.02 -4 7.04 -4 5 C-5.98 5.99 -5.98 5.99 -8 7 C-8 6.01 -8 5.02 -8 4 C-3.77142857 0 -3.77142857 0 0 0 Z " fill="#3EA73D" transform="translate(292,239)"/>
<path d="M0 0 C1.65 0.99 3.3 1.98 5 3 C4.01 3.495 4.01 3.495 3 4 C2.34 3.67 1.68 3.34 1 3 C1.33 4.65 1.66 6.3 2 8 C1.43796875 7.69320312 0.8759375 7.38640625 0.296875 7.0703125 C-2.06346934 5.97042415 -4.20465562 5.39904149 -6.75 4.875 C-7.54921875 4.70742187 -8.3484375 4.53984375 -9.171875 4.3671875 C-9.77515625 4.24601563 -10.3784375 4.12484375 -11 4 C-11 3.67 -11 3.34 -11 3 C-10.06027344 3.05220703 -10.06027344 3.05220703 -9.1015625 3.10546875 C-8.28429687 3.13253906 -7.46703125 3.15960938 -6.625 3.1875 C-5.40683594 3.23970703 -5.40683594 3.23970703 -4.1640625 3.29296875 C-3.44992187 3.19628906 -2.73578125 3.09960938 -2 3 C-1.34 2.01 -0.68 1.02 0 0 Z " fill="#42CB41" transform="translate(363,130)"/>
<path d="M0 0 C0.99 0 1.98 0 3 0 C3 3.63 3 7.26 3 11 C2.01 11 1.02 11 0 11 C0 7.37 0 3.74 0 0 Z " fill="#4CB94B" transform="translate(304,197)"/>
<path d="M0 0 C0.33 0 0.66 0 1 0 C1.66 2.97 2.32 5.94 3 9 C1.68 9.33 0.36 9.66 -1 10 C-2.38125018 7.23749964 -2.19079306 5.05268901 -2 2 C-1.34 1.34 -0.68 0.68 0 0 Z " fill="#159914" transform="translate(232,187)"/>
<path d="M0 0 C0 0.99 0 1.98 0 3 C-3.85756507 5.15305957 -6.55129785 6.39253254 -11 6 C-7.87921364 2.5324596 -4.85451611 0 0 0 Z " fill="#17A416" transform="translate(253,172)"/>
<path d="M0 0 C1.3401109 2.6802218 0.40671684 3.91785869 -0.453125 6.6484375 C-1.61905418 11.66193297 -1.7070693 16.8737127 -2 22 C-2.33 22 -2.66 22 -3 22 C-3.55353075 6.07061503 -3.55353075 6.07061503 0 0 Z " fill="#66AD66" transform="translate(244,199)"/>
<path d="M0 0 C1.37562854 1.28965176 2.70766393 2.62689293 4 4 C4 4.66 4 5.32 4 6 C-1.61 6 -7.22 6 -13 6 C-13 5.67 -13 5.34 -13 5 C-8.38 4.67 -3.76 4.34 1 4 C0.67 2.68 0.34 1.36 0 0 Z " fill="#47AA46" transform="translate(402,257)"/>
<path d="M0 0 C0.33 1.32 0.66 2.64 1 4 C-0.98 4.99 -0.98 4.99 -3 6 C-3 5.34 -3 4.68 -3 4 C-4.65 4.66 -6.3 5.32 -8 6 C-7.67 4.35 -7.34 2.7 -7 1 C-5.68 1 -4.36 1 -3 1 C-3 1.66 -3 2.32 -3 3 C-2.34 3 -1.68 3 -1 3 C-0.67 2.01 -0.34 1.02 0 0 Z " fill="#0AB009" transform="translate(321,200)"/>
<path d="M0 0 C4.87685861 1.35468295 6.48592381 3.71675909 9 8 C8.34 8 7.68 8 7 8 C7.33 9.65 7.66 11.3 8 13 C5.22544912 11.61272456 4.91329392 9.61803598 3.796875 6.85546875 C2.75340661 4.42582422 1.41760718 2.22766842 0 0 Z " fill="#C2E4C2" transform="translate(328,189)"/>
<path d="M0 0 C0 0.99 0 1.98 0 3 C0.99 3 1.98 3 3 3 C2.67 3.66 2.34 4.32 2 5 C0.68 5 -0.64 5 -2 5 C-2.33 5.66 -2.66 6.32 -3 7 C-4.32 6.67 -5.64 6.34 -7 6 C-5.81636731 2.44910192 -3.99368042 0 0 0 Z " fill="#CBE9CB" transform="translate(386,142)"/>
<path d="M0 0 C2.33333333 0 4.66666667 0 7 0 C7 0.66 7 1.32 7 2 C7.99 2.33 8.98 2.66 10 3 C7.24921116 3.91692961 5.64051087 4.10886083 2.8125 4.0625 C0.9253125 4.0315625 0.9253125 4.0315625 -1 4 C-0.67 2.68 -0.34 1.36 0 0 Z " fill="#16C515" transform="translate(356,155)"/>
<path d="M0 0 C2 3 2 3 2 6 C0.35 6.33 -1.3 6.66 -3 7 C-3 7.66 -3 8.32 -3 9 C-3.66 9 -4.32 9 -5 9 C-4.5206753 4.68607774 -3.2542015 2.83430453 0 0 Z " fill="#0CC10B" transform="translate(323,107)"/>
<path d="M0 0 C2 3 2 3 2 5 C2.66 5 3.32 5 4 5 C4 5.66 4 6.32 4 7 C4.99 7.33 5.98 7.66 7 8 C4.50907189 9.24546405 3.58919267 8.7767578 1 8 C0.67 8.66 0.34 9.32 0 10 C0 6.7 0 3.4 0 0 Z " fill="#2ABE2A" transform="translate(366,201)"/>
<path d="M0 0 C1.8871875 0.061875 1.8871875 0.061875 3.8125 0.125 C3.8125 0.785 3.8125 1.445 3.8125 2.125 C1.29196405 3.38526798 -0.0417098 3.04374445 -2.8125 2.6875 C-4.03839844 2.53474609 -4.03839844 2.53474609 -5.2890625 2.37890625 C-5.91554688 2.29511719 -6.54203125 2.21132812 -7.1875 2.125 C-4.09861478 0.06574319 -3.47814073 -0.1140374 0 0 Z " fill="#5BBE5A" transform="translate(378.1875,158.875)"/>
<path d="M0 0 C0.66 0.33 1.32 0.66 2 1 C1.34 2.32 0.68 3.64 0 5 C0.99 5.33 1.98 5.66 3 6 C1.02 6.66 -0.96 7.32 -3 8 C-3 7.01 -3 6.02 -3 5 C-3.66 4.67 -4.32 4.34 -5 4 C-3.35 2.68 -1.7 1.36 0 0 Z " fill="#48C148" transform="translate(295,149)"/>
<path d="M0 0 C0.99 0.33 1.98 0.66 3 1 C3 1.66 3 2.32 3 3 C-1.95 3.33 -6.9 3.66 -12 4 C-7.09396701 0.32047526 -5.82490317 0.70875484 0 1 C0 0.67 0 0.34 0 0 Z " fill="#35C934" transform="translate(365,138)"/>
<path d="M0 0 C-0.33 0.99 -0.66 1.98 -1 3 C-4.0625 4.1875 -4.0625 4.1875 -7 5 C-7.66 4.34 -8.32 3.68 -9 3 C-5.92807025 0.26939578 -4.09590633 -0.34132553 0 0 Z " fill="#70C46F" transform="translate(323,135)"/>
<path d="M0 0 C1.32 0 2.64 0 4 0 C3.8125 1.875 3.8125 1.875 3 4 C0.4375 5.25 0.4375 5.25 -2 6 C-1.125 1.125 -1.125 1.125 0 0 Z " fill="#1EB81D" transform="translate(288,154)"/>
<path d="M0 0 C0.66 0 1.32 0 2 0 C2 2.31 2 4.62 2 7 C0.02 6.34 -1.96 5.68 -4 5 C-4 4.34 -4 3.68 -4 3 C-3.01 3 -2.02 3 -1 3 C-0.67 2.01 -0.34 1.02 0 0 Z " fill="#17C916" transform="translate(389,110)"/>
<path d="M0 0 C2 1 2 1 3 3 C-2.625 6 -2.625 6 -6 6 C-6 5.34 -6 4.68 -6 4 C-4.03852126 2.61061923 -2.03833424 1.2739589 0 0 Z " fill="#599E59" transform="translate(250,238)"/>
<path d="M0 0 C2.97 0 5.94 0 9 0 C9 0.66 9 1.32 9 2 C9.66 2.66 10.32 3.32 11 4 C7.37 3.34 3.74 2.68 0 2 C0 1.34 0 0.68 0 0 Z " fill="#6BAF6A" transform="translate(281,230)"/>
<path d="M0 0 C2.46800047 1.15173355 4.04783565 2.04783565 6 4 C6 5.32 6 6.64 6 8 C4.68 7.67 3.36 7.34 2 7 C1.34 4.69 0.68 2.38 0 0 Z " fill="#3EBB3D" transform="translate(327,208)"/>
<path d="M0 0 C2.10827055 3.16240582 2.33817465 4.50657469 2.625 8.1875 C2.69976562 9.08855469 2.77453125 9.98960937 2.8515625 10.91796875 C2.90054687 11.60503906 2.94953125 12.29210937 3 13 C1.68 12.34 0.36 11.68 -1 11 C-0.34 10.67 0.32 10.34 1 10 C0.67 6.7 0.34 3.4 0 0 Z " fill="#4CB04C" transform="translate(335,202)"/>
<path d="M0 0 C0.99 0 1.98 0 3 0 C2.67 1.65 2.34 3.3 2 5 C0.68 5.33 -0.64 5.66 -2 6 C-2.33 5.34 -2.66 4.68 -3 4 C-1.6875 2 -1.6875 2 0 0 Z " fill="#1BBB1A" transform="translate(297,149)"/>
<path d="M0 0 C0 0.66 0 1.32 0 2 C-1.65 2.66 -3.3 3.32 -5 4 C-5.33 3.67 -5.66 3.34 -6 3 C-8.67058851 2.85884839 -11.32432238 2.95752893 -14 3 C-13.67 2.34 -13.34 1.68 -13 1 C-10.56640625 0.5859375 -10.56640625 0.5859375 -7.5625 0.375 C-6.57378906 0.30023438 -5.58507812 0.22546875 -4.56640625 0.1484375 C-3.04600783 0.06049969 -1.5229394 0 0 0 Z " fill="#2EBE2E" transform="translate(336,146)"/>
<path d="M0 0 C0.66 0 1.32 0 2 0 C1.52797514 4.24822374 -0.96655518 6.19989709 -4 9 C-4.33 8.01 -4.66 7.02 -5 6 C-2.6875 2.8125 -2.6875 2.8125 0 0 Z " fill="#159E14" transform="translate(238,178)"/>
<path d="M0 0 C0.66 0 1.32 0 2 0 C2 0.66 2 1.32 2 2 C2.66 2 3.32 2 4 2 C3.34 3.32 2.68 4.64 2 6 C1.34 6 0.68 6 0 6 C-0.66 6.99 -1.32 7.98 -2 9 C-1.125 1.125 -1.125 1.125 0 0 Z " fill="#DCEDDC" transform="translate(356,171)"/>
<path d="M0 0 C0.33 0.66 0.66 1.32 1 2 C1.66 2.33 2.32 2.66 3 3 C1.37660195 4.70884005 -0.29319053 6.37446717 -2 8 C-2.66 8 -3.32 8 -4 8 C-2.66666667 5.33333333 -1.33333333 2.66666667 0 0 Z " fill="#63B563" transform="translate(354,211)"/>
<path d="M0 0 C-0.57344937 2.86724686 -0.8614515 3.8614515 -3 6 C-5.125 5.625 -5.125 5.625 -7 5 C-2.25 0 -2.25 0 0 0 Z " fill="#3ECB3D" transform="translate(378,115)"/>
<path d="M0 0 C0.66 0 1.32 0 2 0 C1.34 1.98 0.68 3.96 0 6 C-0.66 5.67 -1.32 5.34 -2 5 C-4.09821215 5.39938767 -4.09821215 5.39938767 -6 6 C-4 4 -2 2 0 0 Z " fill="#44C643" transform="translate(334,95)"/>
<path d="M0 0 C0.33 0 0.66 0 1 0 C1.2475 1.0725 1.495 2.145 1.75 3.25 C2.99883146 6.99649437 4.02488658 8.52073882 7 11 C6.01 11.33 5.02 11.66 4 12 C1.02449969 8.9315153 0.03525487 7.53763669 -0.25 3.1875 C-0.1675 2.135625 -0.085 1.08375 0 0 Z " fill="#51CA50" transform="translate(325,112)"/>
<path d="M0 0 C0.66 0 1.32 0 2 0 C2.99 1.98 3.98 3.96 5 6 C3.02 6 1.04 6 -1 6 C-0.67 4.02 -0.34 2.04 0 0 Z " fill="#C8E9C8" transform="translate(340,152)"/>
<path d="M0 0 C0 0.66 0 1.32 0 2 C1.32 2.33 2.64 2.66 4 3 C1.69 3.66 -0.62 4.32 -3 5 C-3.33 3.68 -3.66 2.36 -4 1 C-2 0 -2 0 0 0 Z " fill="#2EB12D" transform="translate(269,164)"/>
<path d="M0 0 C0.33 0.99 0.66 1.98 1 3 C-1.83556587 4.41778293 -3.9908706 3.86257622 -7.125 3.5625 C-8.22070312 3.46066406 -9.31640625 3.35882813 -10.4453125 3.25390625 C-11.70988281 3.12822266 -11.70988281 3.12822266 -13 3 C-13 2.67 -13 2.34 -13 2 C-12.14535156 1.93941406 -11.29070312 1.87882813 -10.41015625 1.81640625 C-8.75306641 1.69072266 -8.75306641 1.69072266 -7.0625 1.5625 C-5.96035156 1.48128906 -4.85820312 1.40007812 -3.72265625 1.31640625 C-1.08890097 1.29581916 -1.08890097 1.29581916 0 0 Z " fill="#51CD50" transform="translate(345,131)"/>
<path d="M0 0 C0.66 0.33 1.32 0.66 2 1 C-1.625 5.875 -1.625 5.875 -5 7 C-3.70700306 4.11562221 -2.34058637 2.12780579 0 0 Z " fill="#B5D9B5" transform="translate(240,180)"/>
<path d="M0 0 C0.66 0 1.32 0 2 0 C1.34 2.97 0.68 5.94 0 9 C-0.99 7.68 -1.98 6.36 -3 5 C-1.125 1.125 -1.125 1.125 0 0 Z " fill="#72C971" transform="translate(354,173)"/>
<path d="M0 0 C3.37503669 1.1858237 5.64722731 2.27573689 8 5 C7.01 5.33 6.02 5.66 5 6 C4.67 5.01 4.34 4.02 4 3 C3.01 3.33 2.02 3.66 1 4 C0.67 2.68 0.34 1.36 0 0 Z " fill="#23C622" transform="translate(355,125)"/>
</svg>
