<?xml version="1.0" encoding="UTF-8"?>
<!DOCTYPE svg PUBLIC "-//W3C//DTD SVG 1.1//EN" "http://www.w3.org/Graphics/SVG/1.1/DTD/svg11.dtd">
<svg xmlns="http://www.w3.org/2000/svg" version="1.1" width="665px" height="375px" style="shape-rendering:geometricPrecision; text-rendering:geometricPrecision; image-rendering:optimizeQuality; fill-rule:evenodd; clip-rule:evenodd" xmlns:xlink="http://www.w3.org/1999/xlink">
<g><path style="opacity:1" fill="#fefefe" d="M -0.5,-0.5 C 221.167,-0.5 442.833,-0.5 664.5,-0.5C 664.5,124.5 664.5,249.5 664.5,374.5C 442.833,374.5 221.167,374.5 -0.5,374.5C -0.5,249.5 -0.5,124.5 -0.5,-0.5 Z"/></g>
<g><path style="opacity:1" fill="#68c066" d="M 334.5,100.5 C 334.167,100.5 333.833,100.5 333.5,100.5C 333.5,99.5 333.5,98.5 333.5,97.5C 332.041,97.4326 330.708,97.7659 329.5,98.5C 329.328,97.5084 329.662,96.8417 330.5,96.5C 331.936,94.6815 333.603,94.3482 335.5,95.5C 334.691,97.0709 334.357,98.7376 334.5,100.5 Z"/></g>
<g><path style="opacity:1" fill="#d8f3d9" d="M 334.5,100.5 C 334.357,98.7376 334.691,97.0709 335.5,95.5C 333.603,94.3482 331.936,94.6815 330.5,96.5C 331.836,90.4788 333.836,90.1455 336.5,95.5C 336.199,97.4216 335.533,99.0883 334.5,100.5 Z"/></g>
<g><path style="opacity:1" fill="#c7f4c7" d="M 393.5,101.5 C 394.05,96.2587 392.384,95.2587 388.5,98.5C 389.607,96.0311 391.607,95.0311 394.5,95.5C 394.795,97.7354 394.461,99.7354 393.5,101.5 Z"/></g>
<g><path style="opacity:1" fill="#98e195" d="M 388.5,98.5 C 388.027,99.9063 387.027,100.573 385.5,100.5C 385.973,99.0937 386.973,98.427 388.5,98.5 Z"/></g>
<g><path style="opacity:1" fill="#37bc33" d="M 393.5,101.5 C 392.513,106.32 391.847,111.32 391.5,116.5C 390.5,116.5 389.5,116.5 388.5,116.5C 388.167,115.833 387.833,115.167 387.5,114.5C 388.5,114.5 389.5,114.5 390.5,114.5C 390.5,110.167 390.5,105.833 390.5,101.5C 388.194,101.993 385.861,102.326 383.5,102.5C 383.5,102.167 383.5,101.833 383.5,101.5C 383.842,100.662 384.508,100.328 385.5,100.5C 387.027,100.573 388.027,99.9063 388.5,98.5C 392.384,95.2587 394.05,96.2587 393.5,101.5 Z"/></g>
<g><path style="opacity:1" fill="#71cc71" d="M 328.5,99.5 C 327.415,101.587 325.749,102.92 323.5,103.5C 324.585,101.413 326.251,100.08 328.5,99.5 Z"/></g>
<g><path style="opacity:1" fill="#b3edb2" d="M 383.5,101.5 C 383.5,101.833 383.5,102.167 383.5,102.5C 382.833,102.5 382.5,102.833 382.5,103.5C 380.833,104.167 379.167,104.833 377.5,105.5C 377.5,105.167 377.5,104.833 377.5,104.5C 379.216,102.975 381.216,101.975 383.5,101.5 Z"/></g>
<g><path style="opacity:1" fill="#28bb25" d="M 333.5,100.5 C 333.5,100.833 333.5,101.167 333.5,101.5C 331.204,102.733 329.87,104.733 329.5,107.5C 325.513,109.305 324.013,112.305 325,116.5C 327.221,119.678 330.054,122.012 333.5,123.5C 325.791,122.459 321.791,117.959 321.5,110C 322.449,109.383 323.282,109.549 324,110.5C 324.781,109.056 324.614,107.723 323.5,106.5C 321.457,107.579 320.124,109.246 319.5,111.5C 318.675,112.386 317.675,112.719 316.5,112.5C 318.451,109.214 320.785,106.214 323.5,103.5C 325.749,102.92 327.415,101.587 328.5,99.5C 328.5,98.8333 328.833,98.5 329.5,98.5C 330.708,97.7659 332.041,97.4326 333.5,97.5C 333.5,98.5 333.5,99.5 333.5,100.5 Z"/></g>
<g><path style="opacity:1" fill="#e3fae3" d="M 377.5,104.5 C 377.5,104.833 377.5,105.167 377.5,105.5C 375.015,106.74 375.015,107.74 377.5,108.5C 378.398,109.158 379.398,109.824 380.5,110.5C 380.137,111.183 379.804,111.85 379.5,112.5C 379.167,112.5 378.833,112.5 378.5,112.5C 377.051,110.836 375.051,110.002 372.5,110C 373.022,109.439 373.355,108.772 373.5,108C 373.108,106.989 372.441,106.489 371.5,106.5C 373.304,105.232 375.304,104.565 377.5,104.5 Z"/></g>
<g><path style="opacity:1" fill="#86d784" d="M 323.5,103.5 C 320.785,106.214 318.451,109.214 316.5,112.5C 314.825,115.507 314.159,118.84 314.5,122.5C 313.225,119.604 313.225,116.604 314.5,113.5C 316.124,108.911 319.124,105.577 323.5,103.5 Z"/></g>
<g><path style="opacity:1" fill="#d7f5d3" d="M 333.5,101.5 C 333.063,104.225 331.73,106.225 329.5,107.5C 329.87,104.733 331.204,102.733 333.5,101.5 Z"/></g>
<g><path style="opacity:1" fill="#64a765" d="M 377.5,105.5 C 377.5,106.5 377.5,107.5 377.5,108.5C 375.015,107.74 375.015,106.74 377.5,105.5 Z"/></g>
<g><path style="opacity:1" fill="#11c90f" d="M 387.5,114.5 C 385.983,113.265 384.316,113.265 382.5,114.5C 381.769,112.599 381.769,110.599 382.5,108.5C 381.325,108.719 380.325,108.386 379.5,107.5C 380.524,106.148 381.524,104.815 382.5,103.5C 382.5,102.833 382.833,102.5 383.5,102.5C 385.861,102.326 388.194,101.993 390.5,101.5C 390.5,105.833 390.5,110.167 390.5,114.5C 389.5,114.5 388.5,114.5 387.5,114.5 Z"/></g>
<g><path style="opacity:1" fill="#d1f1cf" d="M 393.5,101.5 C 393.666,106.511 393.499,111.511 393,116.5C 390.458,118.838 387.625,119.172 384.5,117.5C 385.292,115.255 386.625,114.922 388.5,116.5C 389.5,116.5 390.5,116.5 391.5,116.5C 391.847,111.32 392.513,106.32 393.5,101.5 Z"/></g>
<g><path style="opacity:1" fill="#d2f7d1" d="M 314.5,113.5 C 313.225,116.604 313.225,119.604 314.5,122.5C 314.5,123.167 314.833,123.5 315.5,123.5C 316.833,125.167 318.167,126.833 319.5,128.5C 317.372,127.043 315.038,126.043 312.5,125.5C 311.911,121.029 312.577,117.029 314.5,113.5 Z"/></g>
<g><path style="opacity:1" fill="#c7f4c3" d="M 329.5,107.5 C 324.832,114.7 326.832,119.533 335.5,122C 338.146,122.497 340.813,122.664 343.5,122.5C 341.393,123.468 339.059,123.802 336.5,123.5C 335.5,123.5 334.5,123.5 333.5,123.5C 330.054,122.012 327.221,119.678 325,116.5C 324.013,112.305 325.513,109.305 329.5,107.5 Z"/></g>
<g><path style="opacity:1" fill="#67cd64" d="M 378.5,112.5 C 378.833,112.5 379.167,112.5 379.5,112.5C 377.459,115.623 374.792,117.957 371.5,119.5C 373.452,116.882 375.785,114.548 378.5,112.5 Z"/></g>
<g><path style="opacity:1" fill="#afebad" d="M 387.5,114.5 C 387.833,115.167 388.167,115.833 388.5,116.5C 386.625,114.922 385.292,115.255 384.5,117.5C 382.098,119.909 379.431,121.909 376.5,123.5C 379.321,119.334 382.988,116.334 387.5,114.5 Z"/></g>
<g><path style="opacity:1" fill="#91da8e" d="M 371.5,119.5 C 370.167,120.833 368.833,122.167 367.5,123.5C 365.088,123.694 364.088,125.027 364.5,127.5C 363.596,126.791 363.263,125.791 363.5,124.5C 365.629,122.05 368.296,120.383 371.5,119.5 Z"/></g>
<g><path style="opacity:1" fill="#25c222" d="M 382.5,103.5 C 381.524,104.815 380.524,106.148 379.5,107.5C 380.325,108.386 381.325,108.719 382.5,108.5C 381.769,110.599 381.769,112.599 382.5,114.5C 384.316,113.265 385.983,113.265 387.5,114.5C 382.988,116.334 379.321,119.334 376.5,123.5C 374.589,124.075 372.922,125.075 371.5,126.5C 369.712,126.785 368.045,126.452 366.5,125.5C 366.863,124.817 367.196,124.15 367.5,123.5C 368.833,122.167 370.167,120.833 371.5,119.5C 374.792,117.957 377.459,115.623 379.5,112.5C 379.804,111.85 380.137,111.183 380.5,110.5C 379.398,109.824 378.398,109.158 377.5,108.5C 377.5,107.5 377.5,106.5 377.5,105.5C 379.167,104.833 380.833,104.167 382.5,103.5 Z"/></g>
<g><path style="opacity:1" fill="#64cd60" d="M 352.5,122.5 C 352.5,122.833 352.5,123.167 352.5,123.5C 346.997,124.352 341.664,124.352 336.5,123.5C 339.059,123.802 341.393,123.468 343.5,122.5C 346.5,121.167 349.5,121.167 352.5,122.5 Z"/></g>
<g><path style="opacity:1" fill="#9de19b" d="M 352.5,123.5 C 352.5,123.167 352.5,122.833 352.5,122.5C 354.027,122.427 355.027,123.094 355.5,124.5C 354.391,124.443 353.391,124.11 352.5,123.5 Z"/></g>
<g><path style="opacity:1" fill="#a4e6a1" d="M 376.5,123.5 C 375.5,125.167 374.167,126.5 372.5,127.5C 372.167,127.5 371.833,127.5 371.5,127.5C 371.5,127.167 371.5,126.833 371.5,126.5C 372.922,125.075 374.589,124.075 376.5,123.5 Z"/></g>
<g><path style="opacity:1" fill="#3fb93b" d="M 367.5,123.5 C 367.196,124.15 366.863,124.817 366.5,125.5C 368.045,126.452 369.712,126.785 371.5,126.5C 371.5,126.833 371.5,127.167 371.5,127.5C 369.274,129.922 366.94,129.922 364.5,127.5C 364.088,125.027 365.088,123.694 367.5,123.5 Z"/></g>
<g><path style="opacity:1" fill="#39b835" d="M 315.5,123.5 C 320.921,126.187 326.254,129.02 331.5,132C 335.89,132.772 340.223,132.606 344.5,131.5C 345.665,132.86 345.332,133.86 343.5,134.5C 335.042,134.558 327.042,132.558 319.5,128.5C 318.167,126.833 316.833,125.167 315.5,123.5 Z"/></g>
<g><path style="opacity:1" fill="#d9f8d6" d="M 363.5,124.5 C 363.263,125.791 363.596,126.791 364.5,127.5C 366.94,129.922 369.274,129.922 371.5,127.5C 371.833,127.5 372.167,127.5 372.5,127.5C 371.847,128.807 371.18,130.14 370.5,131.5C 371.524,132.852 372.524,134.185 373.5,135.5C 369.986,134.216 366.653,132.55 363.5,130.5C 362.473,128.806 361.139,127.473 359.5,126.5C 361.199,126.473 362.533,125.806 363.5,124.5 Z"/></g>
<g><path style="opacity:1" fill="#f7fdf7" d="M 321.5,131.5 C 325.969,133.393 330.635,134.727 335.5,135.5C 335.137,136.183 334.804,136.85 334.5,137.5C 334.167,137.5 333.833,137.5 333.5,137.5C 331.938,137.733 330.605,138.4 329.5,139.5C 327.368,139.554 326.035,140.554 325.5,142.5C 327.844,142.94 329.844,143.94 331.5,145.5C 328.482,145.335 325.482,145.502 322.5,146C 321.748,146.671 321.414,147.504 321.5,148.5C 319.738,149.262 318.738,150.596 318.5,152.5C 317.542,152.953 316.708,153.619 316,154.5C 315.5,169.163 315.333,183.83 315.5,198.5C 314.209,198.263 313.209,198.596 312.5,199.5C 310.896,200.287 310.229,201.62 310.5,203.5C 309.196,209.067 309.196,214.734 310.5,220.5C 309.842,221.398 309.176,222.398 308.5,223.5C 308.167,223.167 307.833,222.833 307.5,222.5C 308.443,217.9 308.777,213.233 308.5,208.5C 305.552,208.223 302.719,208.556 300,209.5C 301.381,206.114 302.215,202.447 302.5,198.5C 301.209,198.737 300.209,198.404 299.5,197.5C 300.833,197.5 302.167,197.5 303.5,197.5C 303.5,200.833 303.5,204.167 303.5,207.5C 304.833,207.5 306.167,207.5 307.5,207.5C 307.5,204.167 307.5,200.833 307.5,197.5C 309.099,197.768 310.432,197.434 311.5,196.5C 311.5,196.167 311.5,195.833 311.5,195.5C 312.495,184.679 312.828,173.679 312.5,162.5C 310.833,162.5 309.167,162.5 307.5,162.5C 307.5,162.167 307.5,161.833 307.5,161.5C 308.244,158.05 306.91,156.384 303.5,156.5C 303.167,156.5 302.833,156.5 302.5,156.5C 302.38,155.414 301.713,154.747 300.5,154.5C 298.666,155.754 296.666,156.421 294.5,156.5C 294.5,156.167 294.5,155.833 294.5,155.5C 296.027,155.573 297.027,154.906 297.5,153.5C 299.38,153.771 300.713,153.104 301.5,151.5C 303.966,150.702 305.966,149.369 307.5,147.5C 309.027,147.573 310.027,146.906 310.5,145.5C 313.268,143.913 315.935,142.08 318.5,140C 320.923,138.429 322.256,136.263 322.5,133.5C 321.5,133.5 320.5,133.5 319.5,133.5C 320.167,132.833 320.833,132.167 321.5,131.5 Z"/></g>
<g><path style="opacity:1" fill="#c8f4c5" d="M 319.5,128.5 C 327.042,132.558 335.042,134.558 343.5,134.5C 340.457,135.345 337.457,136.345 334.5,137.5C 334.804,136.85 335.137,136.183 335.5,135.5C 330.635,134.727 325.969,133.393 321.5,131.5C 319.952,131.179 319.285,130.179 319.5,128.5 Z"/></g>
<g><path style="opacity:1" fill="#67b466" d="M 316.5,135.5 C 321.478,135.147 321.812,136.147 317.5,138.5C 317.265,137.903 316.765,137.57 316,137.5C 314.594,138.414 313.094,139.08 311.5,139.5C 311.5,139.167 311.5,138.833 311.5,138.5C 313.001,137.248 314.668,136.248 316.5,135.5 Z"/></g>
<g><path style="opacity:1" fill="#b6e9b2" d="M 373.5,135.5 C 375.027,135.427 376.027,136.094 376.5,137.5C 374.973,137.573 373.973,136.906 373.5,135.5 Z"/></g>
<g><path style="opacity:1" fill="#e1f9e1" d="M 311.5,138.5 C 311.5,138.833 311.5,139.167 311.5,139.5C 309.302,141.098 306.969,142.431 304.5,143.5C 305.738,141.381 307.238,139.381 309,137.5C 309.671,138.252 310.504,138.586 311.5,138.5 Z"/></g>
<g><path style="opacity:1" fill="#c3e9c3" d="M 319.5,133.5 C 320.5,133.5 321.5,133.5 322.5,133.5C 322.256,136.263 320.923,138.429 318.5,140C 315.935,142.08 313.268,143.913 310.5,145.5C 312.527,142.806 314.861,140.473 317.5,138.5C 321.812,136.147 321.478,135.147 316.5,135.5C 316.973,134.094 317.973,133.427 319.5,133.5 Z"/></g>
<g><path style="opacity:1" fill="#19c317" d="M 333.5,123.5 C 334.5,123.5 335.5,123.5 336.5,123.5C 341.664,124.352 346.997,124.352 352.5,123.5C 353.391,124.11 354.391,124.443 355.5,124.5C 356.514,125.674 357.847,126.34 359.5,126.5C 361.139,127.473 362.473,128.806 363.5,130.5C 363.414,131.496 363.748,132.329 364.5,133C 367.393,134.649 370.06,136.483 372.5,138.5C 370.863,137.782 369.197,137.616 367.5,138C 368.337,139.011 368.67,140.178 368.5,141.5C 364.158,141.261 359.824,140.927 355.5,140.5C 355.25,141.922 354.417,142.922 353,143.5C 351.989,142.663 350.822,142.33 349.5,142.5C 349.344,138.865 348.178,138.532 346,141.5C 343.266,138.859 340.099,138.192 336.5,139.5C 337.602,140.176 338.602,140.842 339.5,141.5C 336.753,141.813 334.086,141.48 331.5,140.5C 332.193,139.482 332.859,138.482 333.5,137.5C 333.833,137.5 334.167,137.5 334.5,137.5C 337.457,136.345 340.457,135.345 343.5,134.5C 345.332,133.86 345.665,132.86 344.5,131.5C 340.223,132.606 335.89,132.772 331.5,132C 326.254,129.02 320.921,126.187 315.5,123.5C 314.833,123.5 314.5,123.167 314.5,122.5C 314.159,118.84 314.825,115.507 316.5,112.5C 317.675,112.719 318.675,112.386 319.5,111.5C 320.124,109.246 321.457,107.579 323.5,106.5C 324.614,107.723 324.781,109.056 324,110.5C 323.282,109.549 322.449,109.383 321.5,110C 321.791,117.959 325.791,122.459 333.5,123.5 Z"/></g>
<g><path style="opacity:1" fill="#e1fce7" d="M 361.5,135.5 C 361.833,136.5 362.5,137.167 363.5,137.5C 362.791,138.404 361.791,138.737 360.5,138.5C 360.167,138.5 359.833,138.5 359.5,138.5C 355.121,134.712 355.787,133.712 361.5,135.5 Z"/></g>
<g><path style="opacity:1" fill="#7aef7d" d="M 356.5,133.5 C 355.662,133.842 355.328,134.508 355.5,135.5C 350.325,132.72 350.659,132.054 356.5,133.5 Z"/></g>
<g><path style="opacity:1" fill="#a6eca4" d="M 356.5,133.5 C 358.698,133.12 360.365,133.787 361.5,135.5C 355.787,133.712 355.121,134.712 359.5,138.5C 357.901,138.768 356.568,138.434 355.5,137.5C 355.5,136.833 355.5,136.167 355.5,135.5C 355.328,134.508 355.662,133.842 356.5,133.5 Z"/></g>
<g><path style="opacity:1" fill="#3bbe38" d="M 363.5,130.5 C 366.653,132.55 369.986,134.216 373.5,135.5C 373.973,136.906 374.973,137.573 376.5,137.5C 376.833,137.5 377.167,137.5 377.5,137.5C 377.833,138.167 378.167,138.833 378.5,139.5C 376.5,139.167 374.5,138.833 372.5,138.5C 370.06,136.483 367.393,134.649 364.5,133C 363.748,132.329 363.414,131.496 363.5,130.5 Z"/></g>
<g><path style="opacity:1" fill="#b0f6b1" d="M 363.5,137.5 C 364.289,137.783 364.956,138.283 365.5,139C 363.866,139.494 362.199,139.66 360.5,139.5C 360.5,139.167 360.5,138.833 360.5,138.5C 361.791,138.737 362.791,138.404 363.5,137.5 Z"/></g>
<g><path style="opacity:1" fill="#d0f6cc" d="M 377.5,137.5 C 380.285,136.916 381.952,137.916 382.5,140.5C 381.292,139.766 379.959,139.433 378.5,139.5C 378.167,138.833 377.833,138.167 377.5,137.5 Z"/></g>
<g><path style="opacity:1" fill="#70e16b" d="M 355.5,137.5 C 356.568,138.434 357.901,138.768 359.5,138.5C 359.833,138.5 360.167,138.5 360.5,138.5C 360.5,138.833 360.5,139.167 360.5,139.5C 358.585,139.216 356.919,139.549 355.5,140.5C 353.015,139.74 353.015,138.74 355.5,137.5 Z"/></g>
<g><path style="opacity:1" fill="#94c196" d="M 329.5,139.5 C 328.167,140.5 328.167,141.5 329.5,142.5C 328.167,142.5 326.833,142.5 325.5,142.5C 326.035,140.554 327.368,139.554 329.5,139.5 Z"/></g>
<g><path style="opacity:1" fill="#d9fbdb" d="M 325.5,142.5 C 326.833,142.5 328.167,142.5 329.5,142.5C 331.924,142.192 334.257,142.526 336.5,143.5C 335.68,145.111 334.346,145.778 332.5,145.5C 332.167,145.5 331.833,145.5 331.5,145.5C 329.844,143.94 327.844,142.94 325.5,142.5 Z"/></g>
<g><path style="opacity:1" fill="#c8f3c6" d="M 382.5,140.5 C 384.176,141.183 384.843,142.517 384.5,144.5C 385.791,144.263 386.791,144.596 387.5,145.5C 384.715,144.916 383.048,145.916 382.5,148.5C 381.5,148.5 380.5,148.5 379.5,148.5C 379.33,145.509 380.663,143.509 383.5,142.5C 383.137,141.817 382.804,141.15 382.5,140.5 Z"/></g>
<g><path style="opacity:1" fill="#d2f3cb" d="M 304.5,143.5 C 301.454,145.858 298.121,147.858 294.5,149.5C 296.736,145.847 300.07,143.847 304.5,143.5 Z"/></g>
<g><path style="opacity:1" fill="#b2f0b0" d="M 331.5,145.5 C 331.833,145.5 332.167,145.5 332.5,145.5C 328.73,145.998 325.063,146.998 321.5,148.5C 321.414,147.504 321.748,146.671 322.5,146C 325.482,145.502 328.482,145.335 331.5,145.5 Z"/></g>
<g><path style="opacity:1" fill="#c5f3c4" d="M 310.5,145.5 C 310.027,146.906 309.027,147.573 307.5,147.5C 307.973,146.094 308.973,145.427 310.5,145.5 Z"/></g>
<g><path style="opacity:1" fill="#4cba48" d="M 387.5,145.5 C 387.833,145.5 388.167,145.5 388.5,145.5C 388.267,148.542 387.267,151.208 385.5,153.5C 385.357,151.738 385.691,150.071 386.5,148.5C 385.3,147.708 383.967,147.708 382.5,148.5C 383.048,145.916 384.715,144.916 387.5,145.5 Z"/></g>
<g><path style="opacity:1" fill="#54bb50" d="M 333.5,137.5 C 332.859,138.482 332.193,139.482 331.5,140.5C 334.086,141.48 336.753,141.813 339.5,141.5C 340.529,143.153 340.029,144.486 338,145.5C 333.632,146.986 329.132,147.819 324.5,148C 321.655,149.545 319.655,151.712 318.5,154.5C 318.5,153.833 318.5,153.167 318.5,152.5C 318.738,150.596 319.738,149.262 321.5,148.5C 325.063,146.998 328.73,145.998 332.5,145.5C 334.346,145.778 335.68,145.111 336.5,143.5C 334.257,142.526 331.924,142.192 329.5,142.5C 328.167,141.5 328.167,140.5 329.5,139.5C 330.605,138.4 331.938,137.733 333.5,137.5 Z"/></g>
<g><path style="opacity:1" fill="#10c80e" d="M 372.5,138.5 C 374.5,138.833 376.5,139.167 378.5,139.5C 379.959,139.433 381.292,139.766 382.5,140.5C 382.804,141.15 383.137,141.817 383.5,142.5C 380.663,143.509 379.33,145.509 379.5,148.5C 380.5,148.5 381.5,148.5 382.5,148.5C 383.967,147.708 385.3,147.708 386.5,148.5C 385.691,150.071 385.357,151.738 385.5,153.5C 385.5,153.833 385.5,154.167 385.5,154.5C 380.709,154.126 376.042,153.126 371.5,151.5C 370.614,152.325 370.281,153.325 370.5,154.5C 366.051,155.029 361.718,156.029 357.5,157.5C 354.428,157.817 351.428,157.484 348.5,156.5C 349.59,154.997 350.757,154.664 352,155.5C 353.786,153.901 355.953,153.067 358.5,153C 358.167,152.667 357.833,152.333 357.5,152C 354.518,152.07 351.518,152.237 348.5,152.5C 347.17,150.653 347.503,149.153 349.5,148C 347.075,147.014 345.409,147.681 344.5,150C 345.154,151.987 346.487,153.32 348.5,154C 344.708,154.323 342.708,152.489 342.5,148.5C 341.325,148.719 340.325,148.386 339.5,147.5C 340.711,145.578 342.044,143.745 343.5,142C 342.207,141.51 340.873,141.343 339.5,141.5C 338.602,140.842 337.602,140.176 336.5,139.5C 340.099,138.192 343.266,138.859 346,141.5C 348.178,138.532 349.344,138.865 349.5,142.5C 350.822,142.33 351.989,142.663 353,143.5C 354.417,142.922 355.25,141.922 355.5,140.5C 359.824,140.927 364.158,141.261 368.5,141.5C 368.67,140.178 368.337,139.011 367.5,138C 369.197,137.616 370.863,137.782 372.5,138.5 Z"/></g>
<g><path style="opacity:1" fill="#b9ebb8" d="M 307.5,147.5 C 305.966,149.369 303.966,150.702 301.5,151.5C 302.802,149.178 304.802,147.845 307.5,147.5 Z"/></g>
<g><path style="opacity:1" fill="#86d486" d="M 294.5,149.5 C 292.966,151.369 290.966,152.702 288.5,153.5C 289.802,151.178 291.802,149.845 294.5,149.5 Z"/></g>
<g><path style="opacity:1" fill="#2db32a" d="M 317.5,138.5 C 314.861,140.473 312.527,142.806 310.5,145.5C 308.973,145.427 307.973,146.094 307.5,147.5C 304.802,147.845 302.802,149.178 301.5,151.5C 299.847,151.66 298.514,152.326 297.5,153.5C 295.973,153.427 294.973,154.094 294.5,155.5C 292.5,156.167 290.5,156.833 288.5,157.5C 287.325,157.719 286.325,157.386 285.5,156.5C 286.993,155.859 287.993,154.859 288.5,153.5C 290.966,152.702 292.966,151.369 294.5,149.5C 298.121,147.858 301.454,145.858 304.5,143.5C 306.969,142.431 309.302,141.098 311.5,139.5C 313.094,139.08 314.594,138.414 316,137.5C 316.765,137.57 317.265,137.903 317.5,138.5 Z"/></g>
<g><path style="opacity:1" fill="#d8f8d6" d="M 388.5,145.5 C 388.812,148.234 389.145,151.068 389.5,154C 388.099,154.41 386.766,154.91 385.5,155.5C 385.5,155.167 385.5,154.833 385.5,154.5C 385.5,154.167 385.5,153.833 385.5,153.5C 387.267,151.208 388.267,148.542 388.5,145.5 Z"/></g>
<g><path style="opacity:1" fill="#8fd68c" d="M 301.5,151.5 C 300.713,153.104 299.38,153.771 297.5,153.5C 298.514,152.326 299.847,151.66 301.5,151.5 Z"/></g>
<g><path style="opacity:1" fill="#91db93" d="M 297.5,153.5 C 297.027,154.906 296.027,155.573 294.5,155.5C 294.973,154.094 295.973,153.427 297.5,153.5 Z"/></g>
<g><path style="opacity:1" fill="#3bb835" d="M 385.5,154.5 C 385.5,154.833 385.5,155.167 385.5,155.5C 380.645,154.953 375.978,154.953 371.5,155.5C 369.302,155.12 367.635,155.787 366.5,157.5C 363.848,157.41 361.515,158.076 359.5,159.5C 357.152,159.67 354.818,160.003 352.5,160.5C 350.201,160.401 348.201,159.734 346.5,158.5C 350.371,158.815 354.038,158.482 357.5,157.5C 361.718,156.029 366.051,155.029 370.5,154.5C 370.281,153.325 370.614,152.325 371.5,151.5C 376.042,153.126 380.709,154.126 385.5,154.5 Z"/></g>
<g><path style="opacity:1" fill="#8cd586" d="M 371.5,155.5 C 371.5,155.833 371.5,156.167 371.5,156.5C 369.784,156.629 368.117,156.962 366.5,157.5C 367.635,155.787 369.302,155.12 371.5,155.5 Z"/></g>
<g><path style="opacity:1" fill="#caecca" d="M 385.5,155.5 C 384.498,157.011 383.831,158.678 383.5,160.5C 382.5,160.5 381.5,160.5 380.5,160.5C 380.611,159.883 380.944,159.383 381.5,159C 379.19,158.503 376.857,158.337 374.5,158.5C 374.179,156.952 373.179,156.285 371.5,156.5C 371.5,156.167 371.5,155.833 371.5,155.5C 375.978,154.953 380.645,154.953 385.5,155.5 Z"/></g>
<g><path style="opacity:1" fill="#b5f0b4" d="M 280.5,156.5 C 280.027,157.906 279.027,158.573 277.5,158.5C 277.973,157.094 278.973,156.427 280.5,156.5 Z"/></g>
<g><path style="opacity:1" fill="#69ae66" d="M 303.5,156.5 C 306.91,156.384 308.244,158.05 307.5,161.5C 306.21,160.942 305.377,159.942 305,158.5C 304.617,159.056 304.117,159.389 303.5,159.5C 303.5,158.5 303.5,157.5 303.5,156.5 Z"/></g>
<g><path style="opacity:1" fill="#c4f6c1" d="M 366.5,157.5 C 364.485,158.924 362.152,159.59 359.5,159.5C 361.515,158.076 363.848,157.41 366.5,157.5 Z"/></g>
<g><path style="opacity:1" fill="#52a153" d="M 374.5,158.5 C 376.857,158.337 379.19,158.503 381.5,159C 380.944,159.383 380.611,159.883 380.5,160.5C 377.918,160.975 375.918,160.308 374.5,158.5 Z"/></g>
<g><path style="opacity:1" fill="#aae9a9" d="M 277.5,158.5 C 276.486,159.674 275.153,160.34 273.5,160.5C 274.287,158.896 275.62,158.229 277.5,158.5 Z"/></g>
<g><path style="opacity:1" fill="#d3f5d1" d="M 294.5,155.5 C 294.5,155.833 294.5,156.167 294.5,156.5C 291.668,159.755 288.001,161.422 283.5,161.5C 285.167,160.167 286.833,158.833 288.5,157.5C 290.5,156.833 292.5,156.167 294.5,155.5 Z"/></g>
<g><path style="opacity:1" fill="#90ce8f" d="M 374.5,158.5 C 375.918,160.308 377.918,160.975 380.5,160.5C 377.492,161.921 374.492,161.754 371.5,160C 372.527,159.487 373.527,158.987 374.5,158.5 Z"/></g>
<g><path style="opacity:1" fill="#d0f6ce" d="M 302.5,156.5 C 302.833,156.5 303.167,156.5 303.5,156.5C 303.5,157.5 303.5,158.5 303.5,159.5C 303.5,160.5 303.5,161.5 303.5,162.5C 301.833,162.5 300.167,162.5 298.5,162.5C 299.568,161.566 300.901,161.232 302.5,161.5C 302.5,159.833 302.5,158.167 302.5,156.5 Z"/></g>
<g><path style="opacity:1" fill="#c5efc5" d="M 268.5,162.5 C 266.151,164.341 263.485,165.674 260.5,166.5C 262.579,164.127 265.246,162.794 268.5,162.5 Z"/></g>
<g><path style="opacity:1" fill="#b6e9af" d="M 283.5,161.5 C 279.824,164.628 275.491,166.628 270.5,167.5C 274.586,165.13 278.919,163.13 283.5,161.5 Z"/></g>
<g><path style="opacity:1" fill="#74d270" d="M 335.5,159.5 C 336.167,159.5 336.833,159.5 337.5,159.5C 337.5,164.5 337.5,169.5 337.5,174.5C 336.732,173.737 336.232,172.737 336,171.5C 335.501,167.514 335.334,163.514 335.5,159.5 Z"/></g>
<g><path style="opacity:1" fill="#2ba728" d="M 288.5,153.5 C 287.993,154.859 286.993,155.859 285.5,156.5C 286.325,157.386 287.325,157.719 288.5,157.5C 286.833,158.833 285.167,160.167 283.5,161.5C 278.919,163.13 274.586,165.13 270.5,167.5C 270.167,167.5 269.833,167.5 269.5,167.5C 266.053,168.083 263.053,169.416 260.5,171.5C 260.167,171.5 259.833,171.5 259.5,171.5C 256.979,171.44 254.646,172.106 252.5,173.5C 250.962,173.547 249.962,172.88 249.5,171.5C 253.701,170.777 257.368,169.11 260.5,166.5C 263.485,165.674 266.151,164.341 268.5,162.5C 270.403,162.204 272.07,161.537 273.5,160.5C 275.153,160.34 276.486,159.674 277.5,158.5C 279.027,158.573 280.027,157.906 280.5,156.5C 283.14,155.552 285.807,154.552 288.5,153.5 Z"/></g>
<g><path style="opacity:1" fill="#a6dca5" d="M 269.5,167.5 C 266.947,169.584 263.947,170.917 260.5,171.5C 263.053,169.416 266.053,168.083 269.5,167.5 Z"/></g>
<g><path style="opacity:1" fill="#e3fae2" d="M 255.5,167.5 C 253.364,168.653 251.364,169.986 249.5,171.5C 248.167,171.833 246.833,172.167 245.5,172.5C 247.937,169.281 251.27,167.614 255.5,167.5 Z"/></g>
<g><path style="opacity:1" fill="#5fb159" d="M 260.5,166.5 C 257.368,169.11 253.701,170.777 249.5,171.5C 251.364,169.986 253.364,168.653 255.5,167.5C 257.216,167.371 258.883,167.038 260.5,166.5 Z"/></g>
<g><path style="opacity:1" fill="#62bb60" d="M 361.5,167.5 C 363.821,169.09 364.821,171.423 364.5,174.5C 363.842,173.602 363.176,172.602 362.5,171.5C 361.482,172.193 360.482,172.859 359.5,173.5C 360.167,171.833 360.833,170.167 361.5,168.5C 361.5,168.167 361.5,167.833 361.5,167.5 Z"/></g>
<g><path style="opacity:1" fill="#7cae7d" d="M 283.5,171.5 C 283.5,171.167 283.5,170.833 283.5,170.5C 284.833,170.5 286.167,170.5 287.5,170.5C 287.5,172.167 287.5,173.833 287.5,175.5C 286.566,174.432 286.232,173.099 286.5,171.5C 285.5,171.5 284.5,171.5 283.5,171.5 Z"/></g>
<g><path style="opacity:1" fill="#dff6dd" d="M 361.5,167.5 C 362.209,166.596 363.209,166.263 364.5,166.5C 366.242,171.273 367.242,176.273 367.5,181.5C 367.167,181.5 366.833,181.5 366.5,181.5C 366.59,178.848 365.924,176.515 364.5,174.5C 364.821,171.423 363.821,169.09 361.5,167.5 Z"/></g>
<g><path style="opacity:1" fill="#cbebc9" d="M 245.5,172.5 C 243.819,174.008 241.819,175.008 239.5,175.5C 240.68,173.087 242.68,172.087 245.5,172.5 Z"/></g>
<g><path style="opacity:1" fill="#c5eac4" d="M 254.5,174.5 C 251.34,177 247.673,178.333 243.5,178.5C 246.8,176.358 250.467,175.025 254.5,174.5 Z"/></g>
<g><path style="opacity:1" fill="#cefbcd" d="M 283.5,170.5 C 283.5,170.833 283.5,171.167 283.5,171.5C 283.5,173.167 283.5,174.833 283.5,176.5C 282.167,176.5 280.833,176.5 279.5,176.5C 280.209,175.596 281.209,175.263 282.5,175.5C 282.216,173.585 282.549,171.919 283.5,170.5 Z"/></g>
<g><path style="opacity:1" fill="#299925" d="M 249.5,171.5 C 249.962,172.88 250.962,173.547 252.5,173.5C 254.646,172.106 256.979,171.44 259.5,171.5C 258.035,172.737 256.368,173.737 254.5,174.5C 250.467,175.025 246.8,176.358 243.5,178.5C 239.571,179.431 236.905,181.764 235.5,185.5C 233.974,186.492 233.307,187.992 233.5,190C 233.307,192.008 233.974,193.508 235.5,194.5C 236.5,194.833 237.167,195.5 237.5,196.5C 237.53,197.497 237.03,198.164 236,198.5C 234.594,197.586 233.094,196.92 231.5,196.5C 229.701,193.495 229.034,190.162 229.5,186.5C 229.5,185.833 229.5,185.167 229.5,184.5C 232.859,181.471 236.192,178.471 239.5,175.5C 241.819,175.008 243.819,174.008 245.5,172.5C 246.833,172.167 248.167,171.833 249.5,171.5 Z"/></g>
<g><path style="opacity:1" fill="#5eba5e" d="M 354.5,175.5 C 353.833,176.5 353.167,177.5 352.5,178.5C 351.5,178.5 350.5,178.5 349.5,178.5C 349.738,176.596 350.738,175.262 352.5,174.5C 353.925,172.969 354.591,173.302 354.5,175.5 Z"/></g>
<g><path style="opacity:1" fill="#77d173" d="M 364.5,174.5 C 365.924,176.515 366.59,178.848 366.5,181.5C 365.076,179.485 364.41,177.152 364.5,174.5 Z"/></g>
<g><path style="opacity:1" fill="#bdeabc" d="M 307.5,162.5 C 309.167,162.5 310.833,162.5 312.5,162.5C 312.828,173.679 312.495,184.679 311.5,195.5C 311.828,184.986 311.494,174.653 310.5,164.5C 309.5,163.833 308.5,163.167 307.5,162.5 Z"/></g>
<g><path style="opacity:1" fill="#64b663" d="M 298.5,162.5 C 300.167,162.5 301.833,162.5 303.5,162.5C 302.5,163.167 301.5,163.833 300.5,164.5C 299.51,170.645 299.177,176.978 299.5,183.5C 299.167,183.5 298.833,183.5 298.5,183.5C 298.5,176.5 298.5,169.5 298.5,162.5 Z"/></g>
<g><path style="opacity:1" fill="#abe2a9" d="M 243.5,178.5 C 240.91,180.745 238.244,183.079 235.5,185.5C 236.905,181.764 239.571,179.431 243.5,178.5 Z"/></g>
<g><path style="opacity:1" fill="#279d26" d="M 283.5,171.5 C 284.5,171.5 285.5,171.5 286.5,171.5C 286.232,173.099 286.566,174.432 287.5,175.5C 287.5,175.833 287.5,176.167 287.5,176.5C 287.5,176.833 287.5,177.167 287.5,177.5C 285.194,177.993 282.861,178.326 280.5,178.5C 279.893,189.423 280.56,200.09 282.5,210.5C 281.5,210.5 280.5,210.5 279.5,210.5C 279.5,199.5 279.5,188.5 279.5,177.5C 281.099,177.768 282.432,177.434 283.5,176.5C 283.5,174.833 283.5,173.167 283.5,171.5 Z"/></g>
<g><path style="opacity:1" fill="#0dc00c" d="M 339.5,141.5 C 340.873,141.343 342.207,141.51 343.5,142C 342.044,143.745 340.711,145.578 339.5,147.5C 340.325,148.386 341.325,148.719 342.5,148.5C 342.708,152.489 344.708,154.323 348.5,154C 346.487,153.32 345.154,151.987 344.5,150C 345.409,147.681 347.075,147.014 349.5,148C 347.503,149.153 347.17,150.653 348.5,152.5C 351.518,152.237 354.518,152.07 357.5,152C 357.833,152.333 358.167,152.667 358.5,153C 355.953,153.067 353.786,153.901 352,155.5C 350.757,154.664 349.59,154.997 348.5,156.5C 351.428,157.484 354.428,157.817 357.5,157.5C 354.038,158.482 350.371,158.815 346.5,158.5C 346.027,157.094 345.027,156.427 343.5,156.5C 342.952,154.606 341.952,152.94 340.5,151.5C 339.571,152.689 339.238,154.022 339.5,155.5C 338.094,155.973 337.427,156.973 337.5,158.5C 337.5,158.833 337.5,159.167 337.5,159.5C 336.833,159.5 336.167,159.5 335.5,159.5C 333.701,166.526 334.368,173.359 337.5,180C 336.993,182.541 336.326,185.041 335.5,187.5C 334.707,187.931 333.873,188.265 333,188.5C 329.928,186.713 326.761,185.047 323.5,183.5C 322.833,183.833 322.167,184.167 321.5,184.5C 322.347,185.845 323.513,186.845 325,187.5C 325.72,189.112 325.554,190.612 324.5,192C 325.793,192.49 327.127,192.657 328.5,192.5C 329.5,195.167 330.5,197.833 331.5,200.5C 329.362,200.297 327.695,199.297 326.5,197.5C 325.264,198.246 323.93,198.579 322.5,198.5C 322.261,196.533 322.594,194.699 323.5,193C 322.451,192.508 321.451,192.674 320.5,193.5C 320.167,193 319.833,192.5 319.5,192C 322.094,190.018 322.094,188.185 319.5,186.5C 318.501,175.854 318.168,165.187 318.5,154.5C 319.655,151.712 321.655,149.545 324.5,148C 329.132,147.819 333.632,146.986 338,145.5C 340.029,144.486 340.529,143.153 339.5,141.5 Z"/></g>
<g><path style="opacity:1" fill="#6ec56a" d="M 343.5,156.5 C 345.027,156.427 346.027,157.094 346.5,158.5C 344.973,158.573 343.973,157.906 343.5,156.5 Z"/></g>
<g><path style="opacity:1" fill="#a2e1a4" d="M 339.5,155.5 C 339.573,157.027 338.906,158.027 337.5,158.5C 337.427,156.973 338.094,155.973 339.5,155.5 Z"/></g>
<g><path style="opacity:1" fill="#a7eda4" d="M 343.5,156.5 C 342.295,154.862 340.962,154.529 339.5,155.5C 339.238,154.022 339.571,152.689 340.5,151.5C 341.952,152.94 342.952,154.606 343.5,156.5 Z"/></g>
<g><path style="opacity:1" fill="#e9fae6" d="M 361.5,168.5 C 360.833,170.167 360.167,171.833 359.5,173.5C 359.5,173.833 359.5,174.167 359.5,174.5C 358.599,175.29 357.932,176.29 357.5,177.5C 356.833,185.5 356.167,193.5 355.5,201.5C 355.828,196.125 355.495,190.792 354.5,185.5C 353.831,187.631 353.165,189.631 352.5,191.5C 352.365,186.047 353.032,180.714 354.5,175.5C 354.591,173.302 353.925,172.969 352.5,174.5C 353.276,172.026 354.776,171.359 357,172.5C 357.792,170.356 359.292,169.023 361.5,168.5 Z"/></g>
<g><path style="opacity:1" fill="#afddad" d="M 239.5,175.5 C 236.192,178.471 232.859,181.471 229.5,184.5C 231.284,182.052 232.618,179.385 233.5,176.5C 235.565,176.483 237.565,176.15 239.5,175.5 Z"/></g>
<g><path style="opacity:1" fill="#47b547" d="M 310.5,164.5 C 311.494,174.653 311.828,184.986 311.5,195.5C 311.5,195.833 311.5,196.167 311.5,196.5C 309.833,196.5 308.167,196.5 306.5,196.5C 305.206,209.724 304.54,209.724 304.5,196.5C 302.833,196.5 301.167,196.5 299.5,196.5C 299.5,194.167 299.5,191.833 299.5,189.5C 300.461,191.265 300.795,193.265 300.5,195.5C 303.833,195.5 307.167,195.5 310.5,195.5C 310.5,185.167 310.5,174.833 310.5,164.5 Z"/></g>
<g><path style="opacity:1" fill="#14b114" d="M 307.5,161.5 C 307.5,161.833 307.5,162.167 307.5,162.5C 308.5,163.167 309.5,163.833 310.5,164.5C 310.5,174.833 310.5,185.167 310.5,195.5C 307.167,195.5 303.833,195.5 300.5,195.5C 300.795,193.265 300.461,191.265 299.5,189.5C 299.5,187.5 299.5,185.5 299.5,183.5C 299.177,176.978 299.51,170.645 300.5,164.5C 301.5,163.833 302.5,163.167 303.5,162.5C 303.5,161.5 303.5,160.5 303.5,159.5C 304.117,159.389 304.617,159.056 305,158.5C 305.377,159.942 306.21,160.942 307.5,161.5 Z"/></g>
<g><path style="opacity:1" fill="#0cb90a" d="M 300.5,164.5 C 302.857,164.337 305.19,164.503 307.5,165C 308.516,165.519 309.182,166.353 309.5,167.5C 308.726,175.805 308.226,184.139 308,192.5C 305.419,189.793 305.252,187.126 307.5,184.5C 306.975,183.808 306.308,183.308 305.5,183C 306.451,182.282 306.617,181.449 306,180.5C 304.736,182.607 302.903,183.607 300.5,183.5C 300.5,177.167 300.5,170.833 300.5,164.5 Z"/></g>
<g><path style="opacity:1" fill="#96d397" d="M 354.5,175.5 C 353.032,180.714 352.365,186.047 352.5,191.5C 352.5,193.5 352.5,195.5 352.5,197.5C 352.167,197.5 351.833,197.5 351.5,197.5C 351.5,193.833 351.5,190.167 351.5,186.5C 351.575,183.794 351.908,181.127 352.5,178.5C 353.167,177.5 353.833,176.5 354.5,175.5 Z"/></g>
<g><path style="opacity:1" fill="#a2e79e" d="M 367.5,183.5 C 368.906,183.973 369.573,184.973 369.5,186.5C 368.094,186.027 367.427,185.027 367.5,183.5 Z"/></g>
<g><path style="opacity:1" fill="#8fd48d" d="M 267.5,189.5 C 266.839,188.282 266.172,186.949 265.5,185.5C 264.828,186.949 264.161,188.282 263.5,189.5C 263.5,187.833 263.5,186.167 263.5,184.5C 264.833,184.5 266.167,184.5 267.5,184.5C 267.5,186.167 267.5,187.833 267.5,189.5 Z"/></g>
<g><path style="opacity:1" fill="#fafefa" d="M 355.5,201.5 C 355.5,202.833 355.5,204.167 355.5,205.5C 354.685,206.429 353.852,207.429 353,208.5C 352.501,204.848 352.335,201.182 352.5,197.5C 352.5,195.5 352.5,193.5 352.5,191.5C 353.165,189.631 353.831,187.631 354.5,185.5C 355.495,190.792 355.828,196.125 355.5,201.5 Z"/></g>
<g><path style="opacity:1" fill="#1cbc1a" d="M 364.5,174.5 C 364.41,177.152 365.076,179.485 366.5,181.5C 366.833,181.5 367.167,181.5 367.5,181.5C 367.5,182.167 367.5,182.833 367.5,183.5C 367.427,185.027 368.094,186.027 369.5,186.5C 371.526,190.581 372.526,194.915 372.5,199.5C 372.5,199.833 372.5,200.167 372.5,200.5C 371.833,200.5 371.5,200.833 371.5,201.5C 369.97,202.067 368.47,202.733 367,203.5C 366.802,201.618 366.302,199.952 365.5,198.5C 365.279,195.608 364.446,192.941 363,190.5C 361.595,193.619 361.095,196.952 361.5,200.5C 361.5,200.833 361.5,201.167 361.5,201.5C 360.542,201.953 359.708,202.619 359,203.5C 358.275,193.806 358.441,184.14 359.5,174.5C 359.5,174.167 359.5,173.833 359.5,173.5C 360.482,172.859 361.482,172.193 362.5,171.5C 363.176,172.602 363.842,173.602 364.5,174.5 Z"/></g>
<g><path style="opacity:1" fill="#c3f1bf" d="M 369.5,186.5 C 371.285,186.926 372.285,188.092 372.5,190C 373.641,193.329 373.641,196.495 372.5,199.5C 372.526,194.915 371.526,190.581 369.5,186.5 Z"/></g>
<g><path style="opacity:1" fill="#c4efc1" d="M 318.5,152.5 C 318.5,153.167 318.5,153.833 318.5,154.5C 317.833,169.5 317.167,184.5 316.5,199.5C 315.167,199.5 313.833,199.5 312.5,199.5C 313.209,198.596 314.209,198.263 315.5,198.5C 315.333,183.83 315.5,169.163 316,154.5C 316.708,153.619 317.542,152.953 318.5,152.5 Z"/></g>
<g><path style="opacity:1" fill="#3cab3a" d="M 351.5,186.5 C 351.5,190.167 351.5,193.833 351.5,197.5C 350.934,202.767 349.601,207.767 347.5,212.5C 345.003,211.871 343.67,210.204 343.5,207.5C 344.482,208.141 345.482,208.807 346.5,209.5C 347.427,207.887 348.261,206.221 349,204.5C 349.976,198.38 350.809,192.38 351.5,186.5 Z"/></g>
<g><path style="opacity:1" fill="#79ba77" d="M 235.5,185.5 C 234.167,188.5 234.167,191.5 235.5,194.5C 233.974,193.508 233.307,192.008 233.5,190C 233.307,187.992 233.974,186.492 235.5,185.5 Z"/></g>
<g><path style="opacity:1" fill="#64a663" d="M 258.5,189.5 C 260.167,189.5 261.833,189.5 263.5,189.5C 262.432,190.434 261.099,190.768 259.5,190.5C 259.5,195.833 259.5,201.167 259.5,206.5C 258.512,201.36 258.179,196.026 258.5,190.5C 258.5,190.167 258.5,189.833 258.5,189.5 Z"/></g>
<g><path style="opacity:1" fill="#9dce9d" d="M 229.5,186.5 C 229.034,190.162 229.701,193.495 231.5,196.5C 231.5,196.833 231.5,197.167 231.5,197.5C 230.542,197.047 229.708,196.381 229,195.5C 228.195,192.304 228.362,189.304 229.5,186.5 Z"/></g>
<g><path style="opacity:1" fill="#6bb469" d="M 251.5,191.5 C 251.5,191.833 251.5,192.167 251.5,192.5C 248.833,194.5 246.5,196.833 244.5,199.5C 244.167,199.5 243.833,199.5 243.5,199.5C 244.415,197.246 245.748,195.246 247.5,193.5C 248.605,192.4 249.938,191.733 251.5,191.5 Z"/></g>
<g><path style="opacity:1" fill="#6aa969" d="M 251.5,191.5 C 252.209,190.596 253.209,190.263 254.5,190.5C 254.5,200.167 254.5,209.833 254.5,219.5C 254.167,219.5 253.833,219.5 253.5,219.5C 254.139,209.773 253.472,200.44 251.5,191.5 Z"/></g>
<g><path style="opacity:1" fill="#9bdc9a" d="M 357.5,177.5 C 357.666,185.84 357.5,194.173 357,202.5C 356.768,203.737 356.268,204.737 355.5,205.5C 355.5,204.167 355.5,202.833 355.5,201.5C 356.167,193.5 356.833,185.5 357.5,177.5 Z"/></g>
<g><path style="opacity:1" fill="#4c9c49" d="M 231.5,197.5 C 231.5,197.167 231.5,196.833 231.5,196.5C 233.094,196.92 234.594,197.586 236,198.5C 237.03,198.164 237.53,197.497 237.5,196.5C 239.176,197.183 239.843,198.517 239.5,200.5C 236.385,200.606 233.719,199.606 231.5,197.5 Z"/></g>
<g><path style="opacity:1" fill="#7ad47d" d="M 365.5,198.5 C 365.5,198.833 365.5,199.167 365.5,199.5C 365.167,199.5 364.833,199.5 364.5,199.5C 364.631,198.624 364.298,197.957 363.5,197.5C 362.824,198.602 362.158,199.602 361.5,200.5C 361.095,196.952 361.595,193.619 363,190.5C 364.446,192.941 365.279,195.608 365.5,198.5 Z"/></g>
<g><path style="opacity:1" fill="#0f9f0d" d="M 267.5,189.5 C 267.821,191.048 268.821,191.715 270.5,191.5C 270.832,202.52 270.499,213.52 269.5,224.5C 268.817,224.863 268.15,225.196 267.5,225.5C 265.559,225.131 263.725,224.464 262,223.5C 261.075,218.375 260.241,213.375 259.5,208.5C 259.5,207.833 259.5,207.167 259.5,206.5C 259.5,201.167 259.5,195.833 259.5,190.5C 261.099,190.768 262.432,190.434 263.5,189.5C 264.161,188.282 264.828,186.949 265.5,185.5C 266.172,186.949 266.839,188.282 267.5,189.5 Z"/></g>
<g><path style="opacity:1" fill="#5aa559" d="M 279.5,176.5 C 280.833,176.5 282.167,176.5 283.5,176.5C 282.432,177.434 281.099,177.768 279.5,177.5C 279.5,188.5 279.5,199.5 279.5,210.5C 280.5,210.5 281.5,210.5 282.5,210.5C 283.167,210.5 283.5,210.833 283.5,211.5C 282.167,211.5 280.833,211.5 279.5,211.5C 278.167,199.833 278.167,188.167 279.5,176.5 Z"/></g>
<g><path style="opacity:1" fill="#4db04b" d="M 287.5,177.5 C 287.5,177.167 287.5,176.833 287.5,176.5C 288.833,176.5 290.167,176.5 291.5,176.5C 291.5,188.167 291.5,199.833 291.5,211.5C 290.5,211.5 289.5,211.5 288.5,211.5C 290.444,200.42 291.111,189.087 290.5,177.5C 289.5,177.5 288.5,177.5 287.5,177.5 Z"/></g>
<g><path style="opacity:1" fill="#a0daa3" d="M 364.5,199.5 C 364.833,199.5 365.167,199.5 365.5,199.5C 365.821,204.695 365.487,209.695 364.5,214.5C 364.167,214.5 363.833,214.5 363.5,214.5C 363.5,213.833 363.5,213.167 363.5,212.5C 364.485,208.366 364.818,204.032 364.5,199.5 Z"/></g>
<g><path style="opacity:1" fill="#36ae34" d="M 359.5,174.5 C 358.441,184.14 358.275,193.806 359,203.5C 359.708,202.619 360.542,201.953 361.5,201.5C 361.5,202.5 361.5,203.5 361.5,204.5C 360.508,206.456 359.508,208.456 358.5,210.5C 357.167,211.833 355.833,213.167 354.5,214.5C 353.596,213.791 353.263,212.791 353.5,211.5C 354.63,209.685 355.296,207.685 355.5,205.5C 356.268,204.737 356.768,203.737 357,202.5C 357.5,194.173 357.666,185.84 357.5,177.5C 357.932,176.29 358.599,175.29 359.5,174.5 Z"/></g>
<g><path style="opacity:1" fill="#69ad64" d="M 243.5,199.5 C 243.741,201.898 243.074,203.898 241.5,205.5C 241.259,203.102 241.926,201.102 243.5,199.5 Z"/></g>
<g><path style="opacity:1" fill="#10a90f" d="M 287.5,177.5 C 288.5,177.5 289.5,177.5 290.5,177.5C 291.111,189.087 290.444,200.42 288.5,211.5C 288.167,211.5 287.833,211.5 287.5,211.5C 287.167,211.5 286.833,211.5 286.5,211.5C 285.5,211.5 284.5,211.5 283.5,211.5C 283.5,210.833 283.167,210.5 282.5,210.5C 280.56,200.09 279.893,189.423 280.5,178.5C 282.861,178.326 285.194,177.993 287.5,177.5 Z"/></g>
<g><path style="opacity:1" fill="#8bce8a" d="M 298.5,183.5 C 298.833,183.5 299.167,183.5 299.5,183.5C 299.5,185.5 299.5,187.5 299.5,189.5C 299.5,191.833 299.5,194.167 299.5,196.5C 301.167,196.5 302.833,196.5 304.5,196.5C 304.54,209.724 305.206,209.724 306.5,196.5C 308.167,196.5 309.833,196.5 311.5,196.5C 310.432,197.434 309.099,197.768 307.5,197.5C 307.5,200.833 307.5,204.167 307.5,207.5C 306.167,207.5 304.833,207.5 303.5,207.5C 303.5,204.167 303.5,200.833 303.5,197.5C 302.167,197.5 300.833,197.5 299.5,197.5C 298.514,193.03 298.181,188.363 298.5,183.5 Z"/></g>
<g><path style="opacity:1" fill="#a7daa9" d="M 340.5,201.5 C 342.008,203.181 343.008,205.181 343.5,207.5C 343.67,210.204 345.003,211.871 347.5,212.5C 347.027,213.906 346.027,214.573 344.5,214.5C 342.79,210.365 341.457,206.032 340.5,201.5 Z"/></g>
<g><path style="opacity:1" fill="#a4e9a6" d="M 372.5,200.5 C 372.326,202.861 371.993,205.194 371.5,207.5C 370.503,207.53 369.836,207.03 369.5,206C 370.414,204.594 371.08,203.094 371.5,201.5C 371.5,200.833 371.833,200.5 372.5,200.5 Z"/></g>
<g><path style="opacity:1" fill="#28b324" d="M 365.5,198.5 C 366.302,199.952 366.802,201.618 367,203.5C 368.47,202.733 369.97,202.067 371.5,201.5C 371.08,203.094 370.414,204.594 369.5,206C 369.836,207.03 370.503,207.53 371.5,207.5C 372.5,207.833 373.167,208.5 373.5,209.5C 373.833,210.167 374.167,210.833 374.5,211.5C 371.934,211.445 369.267,210.778 366.5,209.5C 366.229,211.821 366.896,213.821 368.5,215.5C 366.335,216.88 366.001,218.547 367.5,220.5C 366.504,220.586 365.671,220.252 365,219.5C 364.506,217.866 364.34,216.199 364.5,214.5C 365.487,209.695 365.821,204.695 365.5,199.5C 365.5,199.167 365.5,198.833 365.5,198.5 Z"/></g>
<g><path style="opacity:1" fill="#15b313" d="M 318.5,154.5 C 318.168,165.187 318.501,175.854 319.5,186.5C 322.094,188.185 322.094,190.018 319.5,192C 319.833,192.5 320.167,193 320.5,193.5C 321.451,192.674 322.451,192.508 323.5,193C 322.594,194.699 322.261,196.533 322.5,198.5C 323.93,198.579 325.264,198.246 326.5,197.5C 327.695,199.297 329.362,200.297 331.5,200.5C 330.5,197.833 329.5,195.167 328.5,192.5C 327.127,192.657 325.793,192.49 324.5,192C 325.554,190.612 325.72,189.112 325,187.5C 323.513,186.845 322.347,185.845 321.5,184.5C 322.167,184.167 322.833,183.833 323.5,183.5C 326.761,185.047 329.928,186.713 333,188.5C 333.873,188.265 334.707,187.931 335.5,187.5C 336.326,185.041 336.993,182.541 337.5,180C 334.368,173.359 333.701,166.526 335.5,159.5C 335.334,163.514 335.501,167.514 336,171.5C 336.232,172.737 336.732,173.737 337.5,174.5C 338.738,176.214 339.405,178.214 339.5,180.5C 339.5,181.5 339.5,182.5 339.5,183.5C 340.095,187.615 341.095,191.615 342.5,195.5C 343.5,195.5 344.5,195.5 345.5,195.5C 346.167,192.167 346.833,188.833 347.5,185.5C 347.5,184.833 347.5,184.167 347.5,183.5C 348.906,183.027 349.573,182.027 349.5,180.5C 349.5,179.833 349.5,179.167 349.5,178.5C 350.5,178.5 351.5,178.5 352.5,178.5C 351.908,181.127 351.575,183.794 351.5,186.5C 350.809,192.38 349.976,198.38 349,204.5C 348.261,206.221 347.427,207.887 346.5,209.5C 345.482,208.807 344.482,208.141 343.5,207.5C 343.008,205.181 342.008,203.181 340.5,201.5C 338.206,197.873 335.54,194.539 332.5,191.5C 327.453,187.348 326.787,187.682 330.5,192.5C 331.529,194.517 332.529,196.517 333.5,198.5C 333.427,200.027 334.094,201.027 335.5,201.5C 335.5,202.5 335.5,203.5 335.5,204.5C 335.5,206.5 335.5,208.5 335.5,210.5C 332.568,210.546 329.902,210.046 327.5,209C 329.993,211.596 330.66,214.43 329.5,217.5C 328.548,216.548 327.548,215.548 326.5,214.5C 325.692,216.423 325.192,218.423 325,220.5C 322.979,217.714 321.479,218.047 320.5,221.5C 318.752,215.032 317.585,215.365 317,222.5C 316.517,221.552 316.351,220.552 316.5,219.5C 315.5,219.5 314.5,219.5 313.5,219.5C 312.542,213.256 312.209,206.923 312.5,200.5C 314.099,200.768 315.432,200.434 316.5,199.5C 317.167,184.5 317.833,169.5 318.5,154.5 Z"/></g>
<g><path style="opacity:1" fill="#d3f6d2" d="M 332.5,191.5 C 335.54,194.539 338.206,197.873 340.5,201.5C 339.206,200.71 338.039,199.71 337,198.5C 337.11,202.129 337.276,205.796 337.5,209.5C 336.833,207.833 336.167,206.167 335.5,204.5C 335.5,203.5 335.5,202.5 335.5,201.5C 335.573,199.973 334.906,198.973 333.5,198.5C 332.529,196.517 331.529,194.517 330.5,192.5C 330.842,191.662 331.508,191.328 332.5,191.5 Z"/></g>
<g><path style="opacity:1" fill="#90dd90" d="M 333.5,198.5 C 334.906,198.973 335.573,199.973 335.5,201.5C 334.094,201.027 333.427,200.027 333.5,198.5 Z"/></g>
<g><path style="opacity:1" fill="#46bc44" d="M 339.5,183.5 C 340.97,186.439 342.47,189.439 344,192.5C 344.847,190.146 345.68,187.812 346.5,185.5C 346.833,185.5 347.167,185.5 347.5,185.5C 346.833,188.833 346.167,192.167 345.5,195.5C 344.5,195.5 343.5,195.5 342.5,195.5C 341.095,191.615 340.095,187.615 339.5,183.5 Z"/></g>
<g><path style="opacity:1" fill="#90ef8d" d="M 332.5,191.5 C 331.508,191.328 330.842,191.662 330.5,192.5C 326.787,187.682 327.453,187.348 332.5,191.5 Z"/></g>
<g><path style="opacity:1" fill="#ccf7ca" d="M 339.5,180.5 C 340.895,183.142 342.395,185.809 344,188.5C 344.377,187.058 345.21,186.058 346.5,185.5C 345.68,187.812 344.847,190.146 344,192.5C 342.47,189.439 340.97,186.439 339.5,183.5C 339.5,182.5 339.5,181.5 339.5,180.5 Z"/></g>
<g><path style="opacity:1" fill="#92e695" d="M 349.5,180.5 C 349.573,182.027 348.906,183.027 347.5,183.5C 347.427,181.973 348.094,180.973 349.5,180.5 Z"/></g>
<g><path style="opacity:1" fill="#0b960a" d="M 251.5,192.5 C 252.657,200.656 252.823,208.99 252,217.5C 251.311,220.408 250.145,223.075 248.5,225.5C 248.466,222.513 248.132,219.513 247.5,216.5C 246.178,216.67 245.011,216.337 244,215.5C 243.564,213.153 243.064,210.819 242.5,208.5C 243.932,205.673 244.599,202.673 244.5,199.5C 246.5,196.833 248.833,194.5 251.5,192.5 Z"/></g>
<g><path style="opacity:1" fill="#a8eba5" d="M 373.5,209.5 C 375.833,209.833 377.167,211.167 377.5,213.5C 376.833,213.167 376.167,212.833 375.5,212.5C 375.5,211.833 375.167,211.5 374.5,211.5C 374.167,210.833 373.833,210.167 373.5,209.5 Z"/></g>
<g><path style="opacity:1" fill="#e1f6e0" d="M 351.5,197.5 C 351.833,197.5 352.167,197.5 352.5,197.5C 352.335,201.182 352.501,204.848 353,208.5C 353.852,207.429 354.685,206.429 355.5,205.5C 355.296,207.685 354.63,209.685 353.5,211.5C 352.086,213.044 351.753,214.711 352.5,216.5C 353.522,216.145 354.189,215.478 354.5,214.5C 355.833,213.167 357.167,211.833 358.5,210.5C 360.975,209.313 361.975,207.313 361.5,204.5C 361.5,203.5 361.5,202.5 361.5,201.5C 361.5,201.167 361.5,200.833 361.5,200.5C 362.158,199.602 362.824,198.602 363.5,197.5C 364.298,197.957 364.631,198.624 364.5,199.5C 364.818,204.032 364.485,208.366 363.5,212.5C 363.719,211.325 363.386,210.325 362.5,209.5C 359.041,212.75 355.374,215.75 351.5,218.5C 350.833,218.167 350.167,217.833 349.5,217.5C 351.216,212.869 350.549,212.036 347.5,215C 346.251,215.74 345.251,215.573 344.5,214.5C 346.027,214.573 347.027,213.906 347.5,212.5C 349.601,207.767 350.934,202.767 351.5,197.5 Z"/></g>
<g><path style="opacity:1" fill="#b4e7af" d="M 361.5,204.5 C 361.975,207.313 360.975,209.313 358.5,210.5C 359.508,208.456 360.508,206.456 361.5,204.5 Z"/></g>
<g><path style="opacity:1" fill="#48a842" d="M 312.5,199.5 C 313.833,199.5 315.167,199.5 316.5,199.5C 315.432,200.434 314.099,200.768 312.5,200.5C 312.209,206.923 312.542,213.256 313.5,219.5C 314.806,220.467 315.473,221.801 315.5,223.5C 314.167,222.5 312.833,221.5 311.5,220.5C 310.593,214.894 310.26,209.227 310.5,203.5C 310.229,201.62 310.896,200.287 312.5,199.5 Z"/></g>
<g><path style="opacity:1" fill="#f3fbf2" d="M 258.5,189.5 C 258.5,189.833 258.5,190.167 258.5,190.5C 257.836,193.146 257.502,195.979 257.5,199C 257.859,208.011 258.525,216.845 259.5,225.5C 260.568,226.434 261.901,226.768 263.5,226.5C 263.784,228.415 263.451,230.081 262.5,231.5C 256.438,234.366 250.438,237.533 244.5,241C 243.007,242.156 243.174,242.99 245,243.5C 246.138,243.011 247.305,242.678 248.5,242.5C 246.55,244.026 244.217,245.026 241.5,245.5C 242.506,246.396 242.506,247.062 241.5,247.5C 240.135,246.193 238.802,246.193 237.5,247.5C 237.5,246.833 237.5,246.167 237.5,245.5C 237.5,244.833 237.5,244.167 237.5,243.5C 241.368,238.122 245.868,233.122 251,228.5C 251.483,227.552 251.649,226.552 251.5,225.5C 253.975,224.313 254.975,222.313 254.5,219.5C 254.5,209.833 254.5,200.167 254.5,190.5C 253.209,190.263 252.209,190.596 251.5,191.5C 249.938,191.733 248.605,192.4 247.5,193.5C 247.5,192.167 247.5,190.833 247.5,189.5C 251.167,189.5 254.833,189.5 258.5,189.5 Z"/></g>
<g><path style="opacity:1" fill="#daeed9" d="M 271.5,190.5 C 273.202,198.149 274.202,206.149 274.5,214.5C 273.732,218.445 273.232,222.445 273,226.5C 271.989,227.337 270.822,227.67 269.5,227.5C 270.81,235.367 267.476,238.367 259.5,236.5C 260.167,235.167 261.167,234.167 262.5,233.5C 263.167,233.833 263.833,234.167 264.5,234.5C 265.209,235.404 266.209,235.737 267.5,235.5C 267.5,232.5 267.5,229.5 267.5,226.5C 268.833,226.5 270.167,226.5 271.5,226.5C 271.5,214.5 271.5,202.5 271.5,190.5 Z"/></g>
<g><path style="opacity:1" fill="#3d933c" d="M 283.5,211.5 C 284.5,211.5 285.5,211.5 286.5,211.5C 286.5,214.833 286.5,218.167 286.5,221.5C 285.5,221.5 284.5,221.5 283.5,221.5C 283.5,218.167 283.5,214.833 283.5,211.5 Z"/></g>
<g><path style="opacity:1" fill="#afe3ab" d="M 337.5,213.5 C 336.1,214.1 335.1,215.1 334.5,216.5C 332.359,215.245 331.693,213.578 332.5,211.5C 333.85,212.95 335.516,213.617 337.5,213.5 Z"/></g>
<g><path style="opacity:1" fill="#d6f7d3" d="M 279.5,211.5 C 280.833,211.5 282.167,211.5 283.5,211.5C 283.5,214.833 283.5,218.167 283.5,221.5C 282.523,218.713 282.19,215.713 282.5,212.5C 281.209,212.737 280.209,212.404 279.5,211.5 Z"/></g>
<g><path style="opacity:1" fill="#cbedcc" d="M 310.5,203.5 C 310.26,209.227 310.593,214.894 311.5,220.5C 311.167,220.5 310.833,220.5 310.5,220.5C 309.196,214.734 309.196,209.067 310.5,203.5 Z"/></g>
<g><path style="opacity:1" fill="#61a363" d="M 353.5,211.5 C 353.263,212.791 353.596,213.791 354.5,214.5C 354.189,215.478 353.522,216.145 352.5,216.5C 351.753,214.711 352.086,213.044 353.5,211.5 Z"/></g>
<g><path style="opacity:1" fill="#44a242" d="M 267.5,189.5 C 269.099,189.232 270.432,189.566 271.5,190.5C 271.5,202.5 271.5,214.5 271.5,226.5C 270.167,226.5 268.833,226.5 267.5,226.5C 267.5,226.167 267.5,225.833 267.5,225.5C 268.15,225.196 268.817,224.863 269.5,224.5C 270.499,213.52 270.832,202.52 270.5,191.5C 268.821,191.715 267.821,191.048 267.5,189.5 Z"/></g>
<g><path style="opacity:1" fill="#a9d2a8" d="M 241.5,205.5 C 241.666,210.511 241.499,215.511 241,220.5C 240.79,222.058 240.29,223.391 239.5,224.5C 239.334,218.824 239.501,213.157 240,207.5C 240.278,206.584 240.778,205.918 241.5,205.5 Z"/></g>
<g><path style="opacity:1" fill="#188f16" d="M 251.5,192.5 C 251.5,192.167 251.5,191.833 251.5,191.5C 253.472,200.44 254.139,209.773 253.5,219.5C 253.296,221.685 252.63,223.685 251.5,225.5C 249.194,228.473 246.527,231.14 243.5,233.5C 241.5,232.167 239.833,230.5 238.5,228.5C 239.11,227.609 239.443,226.609 239.5,225.5C 239.5,225.167 239.5,224.833 239.5,224.5C 240.29,223.391 240.79,222.058 241,220.5C 241.499,215.511 241.666,210.511 241.5,205.5C 243.074,203.898 243.741,201.898 243.5,199.5C 243.833,199.5 244.167,199.5 244.5,199.5C 244.599,202.673 243.932,205.673 242.5,208.5C 243.064,210.819 243.564,213.153 244,215.5C 245.011,216.337 246.178,216.67 247.5,216.5C 248.132,219.513 248.466,222.513 248.5,225.5C 250.145,223.075 251.311,220.408 252,217.5C 252.823,208.99 252.657,200.656 251.5,192.5 Z"/></g>
<g><path style="opacity:1" fill="#e2fae2" d="M 377.5,213.5 C 379.229,214.117 380.729,215.117 382,216.5C 382.501,220.51 383.001,224.51 383.5,228.5C 382.833,227.5 382.167,226.5 381.5,225.5C 380.733,221.302 379.399,217.302 377.5,213.5 Z"/></g>
<g><path style="opacity:1" fill="#89b586" d="M 286.5,211.5 C 286.833,211.5 287.167,211.5 287.5,211.5C 287.5,215.167 287.5,218.833 287.5,222.5C 285.901,222.768 284.568,222.434 283.5,221.5C 284.5,221.5 285.5,221.5 286.5,221.5C 286.5,218.167 286.5,214.833 286.5,211.5 Z"/></g>
<g><path style="opacity:1" fill="#35ab32" d="M 335.5,204.5 C 336.167,206.167 336.833,207.833 337.5,209.5C 337.5,210.833 337.5,212.167 337.5,213.5C 335.516,213.617 333.85,212.95 332.5,211.5C 331.693,213.578 332.359,215.245 334.5,216.5C 335.475,218.795 336.808,220.795 338.5,222.5C 338.427,224.027 339.094,225.027 340.5,225.5C 340.5,226.167 340.5,226.833 340.5,227.5C 337.453,226.71 335.786,224.71 335.5,221.5C 333.035,220.745 331.035,219.412 329.5,217.5C 330.66,214.43 329.993,211.596 327.5,209C 329.902,210.046 332.568,210.546 335.5,210.5C 335.5,208.5 335.5,206.5 335.5,204.5 Z"/></g>
<g><path style="opacity:1" fill="#0db80c" d="M 374.5,211.5 C 375.167,211.5 375.5,211.833 375.5,212.5C 375.739,214.467 375.406,216.301 374.5,218C 378.597,218.634 379.264,220.301 376.5,223C 376.833,223.333 377.167,223.667 377.5,224C 373.962,225.972 372.962,224.972 374.5,221C 373.181,220.805 371.847,220.972 370.5,221.5C 369.609,220.89 368.609,220.557 367.5,220.5C 366.001,218.547 366.335,216.88 368.5,215.5C 366.896,213.821 366.229,211.821 366.5,209.5C 369.267,210.778 371.934,211.445 374.5,211.5 Z"/></g>
<g><path style="opacity:1" fill="#2f952d" d="M 259.5,208.5 C 260.241,213.375 261.075,218.375 262,223.5C 263.725,224.464 265.559,225.131 267.5,225.5C 267.5,225.833 267.5,226.167 267.5,226.5C 266.683,228.969 266.183,231.635 266,234.5C 265.814,231.964 265.314,229.631 264.5,227.5C 264.5,226.833 264.167,226.5 263.5,226.5C 261.901,226.768 260.568,226.434 259.5,225.5C 259.5,219.833 259.5,214.167 259.5,208.5 Z"/></g>
<g><path style="opacity:1" fill="#b3d9b2" d="M 258.5,190.5 C 258.179,196.026 258.512,201.36 259.5,206.5C 259.5,207.167 259.5,207.833 259.5,208.5C 259.5,214.167 259.5,219.833 259.5,225.5C 258.525,216.845 257.859,208.011 257.5,199C 257.502,195.979 257.836,193.146 258.5,190.5 Z"/></g>
<g><path style="opacity:1" fill="#4ab247" d="M 363.5,214.5 C 363.833,214.5 364.167,214.5 364.5,214.5C 364.34,216.199 364.506,217.866 365,219.5C 365.671,220.252 366.504,220.586 367.5,220.5C 368.609,220.557 369.609,220.89 370.5,221.5C 370.5,222.167 370.5,222.833 370.5,223.5C 367.95,222.642 365.45,221.642 363,220.5C 362.82,218.512 362.986,216.512 363.5,214.5 Z"/></g>
<g><path style="opacity:1" fill="#c1e3c2" d="M 253.5,219.5 C 253.833,219.5 254.167,219.5 254.5,219.5C 254.975,222.313 253.975,224.313 251.5,225.5C 252.63,223.685 253.296,221.685 253.5,219.5 Z"/></g>
<g><path style="opacity:1" fill="#0faa0d" d="M 329.5,217.5 C 331.035,219.412 333.035,220.745 335.5,221.5C 335.786,224.71 337.453,226.71 340.5,227.5C 341.5,228.167 342.5,228.833 343.5,229.5C 343.821,230.817 344.154,232.151 344.5,233.5C 342.456,237.552 340.456,241.552 338.5,245.5C 337.07,245.421 335.736,245.754 334.5,246.5C 334.167,246 333.833,245.5 333.5,245C 334.885,243.403 335.551,241.57 335.5,239.5C 335.5,239.167 335.5,238.833 335.5,238.5C 336.461,236.735 336.795,234.735 336.5,232.5C 333.996,231.361 331.33,230.694 328.5,230.5C 326.544,229.508 324.544,228.508 322.5,227.5C 322.167,227.5 321.833,227.5 321.5,227.5C 319.463,226.154 317.463,224.82 315.5,223.5C 315.473,221.801 314.806,220.467 313.5,219.5C 314.5,219.5 315.5,219.5 316.5,219.5C 316.351,220.552 316.517,221.552 317,222.5C 317.585,215.365 318.752,215.032 320.5,221.5C 321.479,218.047 322.979,217.714 325,220.5C 325.192,218.423 325.692,216.423 326.5,214.5C 327.548,215.548 328.548,216.548 329.5,217.5 Z"/></g>
<g><path style="opacity:1" fill="#88ca84" d="M 338.5,222.5 C 339.906,222.973 340.573,223.973 340.5,225.5C 339.094,225.027 338.427,224.027 338.5,222.5 Z"/></g>
<g><path style="opacity:1" fill="#7ec67d" d="M 340.5,225.5 C 342.262,226.262 343.262,227.596 343.5,229.5C 342.5,228.833 341.5,228.167 340.5,227.5C 340.5,226.833 340.5,226.167 340.5,225.5 Z"/></g>
<g><path style="opacity:1" fill="#85c280" d="M 239.5,225.5 C 239.443,226.609 239.11,227.609 238.5,228.5C 238.167,228.5 237.833,228.5 237.5,228.5C 237.427,226.973 238.094,225.973 239.5,225.5 Z"/></g>
<g><path style="opacity:1" fill="#b2d7b0" d="M 302.5,231.5 C 300.833,231.5 299.167,231.5 297.5,231.5C 295.5,231.5 293.5,231.5 291.5,231.5C 289.414,230.391 287.08,229.724 284.5,229.5C 282.97,229.64 281.97,230.307 281.5,231.5C 280.596,230.791 280.263,229.791 280.5,228.5C 288.08,228.656 295.414,229.656 302.5,231.5 Z"/></g>
<g><path style="opacity:1" fill="#5eb557" d="M 322.5,227.5 C 324.544,228.508 326.544,229.508 328.5,230.5C 325.687,230.975 323.687,229.975 322.5,227.5 Z"/></g>
<g><path style="opacity:1" fill="#a6a8a7" d="M 353.5,227.5 C 354.552,227.351 355.552,227.517 356.5,228C 354.63,229.366 352.63,230.533 350.5,231.5C 349.479,230.998 349.312,230.332 350,229.5C 351.302,228.915 352.469,228.249 353.5,227.5 Z"/></g>
<g><path style="opacity:1" fill="#85bc80" d="M 237.5,228.5 C 236.243,231.427 234.243,233.761 231.5,235.5C 232.757,232.573 234.757,230.239 237.5,228.5 Z"/></g>
<g><path style="opacity:1" fill="#5fab5d" d="M 267.5,226.5 C 267.5,229.5 267.5,232.5 267.5,235.5C 266.209,235.737 265.209,235.404 264.5,234.5C 264.5,232.167 264.5,229.833 264.5,227.5C 265.314,229.631 265.814,231.964 266,234.5C 266.183,231.635 266.683,228.969 267.5,226.5 Z"/></g>
<g><path style="opacity:1" fill="#4a9344" d="M 291.5,231.5 C 290.833,231.5 290.5,231.833 290.5,232.5C 288.565,231.85 286.565,231.517 284.5,231.5C 283.5,231.5 282.5,231.5 281.5,231.5C 281.97,230.307 282.97,229.64 284.5,229.5C 287.08,229.724 289.414,230.391 291.5,231.5 Z"/></g>
<g><path style="opacity:1" fill="#97c592" d="M 284.5,231.5 C 286.565,231.517 288.565,231.85 290.5,232.5C 291.167,232.5 291.5,232.833 291.5,233.5C 288.848,233.59 286.515,232.924 284.5,231.5 Z"/></g>
<g><path style="opacity:1" fill="#9ad798" d="M 381.5,225.5 C 382.167,226.5 382.833,227.5 383.5,228.5C 384.6,229.605 385.267,230.938 385.5,232.5C 382.482,231.145 381.149,228.812 381.5,225.5 Z"/></g>
<g><path style="opacity:1" fill="#bbf1bd" d="M 263.5,226.5 C 264.167,226.5 264.5,226.833 264.5,227.5C 264.5,229.833 264.5,232.167 264.5,234.5C 263.833,234.167 263.167,233.833 262.5,233.5C 262.5,232.833 262.5,232.167 262.5,231.5C 263.451,230.081 263.784,228.415 263.5,226.5 Z"/></g>
<g><path style="opacity:1" fill="#72a873" d="M 297.5,231.5 C 299.167,231.5 300.833,231.5 302.5,231.5C 304.382,232.221 304.715,233.221 303.5,234.5C 301.751,233.015 299.751,232.015 297.5,231.5 Z"/></g>
<g><path style="opacity:1" fill="#48ae42" d="M 328.5,230.5 C 331.33,230.694 333.996,231.361 336.5,232.5C 336.795,234.735 336.461,236.735 335.5,238.5C 335.649,237.448 335.483,236.448 335,235.5C 332.927,233.579 330.76,231.912 328.5,230.5 Z"/></g>
<g><path style="opacity:1" fill="#b4dcb0" d="M 251.5,225.5 C 251.649,226.552 251.483,227.552 251,228.5C 245.868,233.122 241.368,238.122 237.5,243.5C 237.343,242.127 237.51,240.793 238,239.5C 240.04,237.63 241.873,235.63 243.5,233.5C 246.527,231.14 249.194,228.473 251.5,225.5 Z"/></g>
<g><path style="opacity:1" fill="#7cbb7a" d="M 292.5,233.5 C 294.027,233.427 295.027,234.094 295.5,235.5C 293.973,235.573 292.973,234.906 292.5,233.5 Z"/></g>
<g><path style="opacity:1" fill="#379a35" d="M 290.5,232.5 C 290.5,231.833 290.833,231.5 291.5,231.5C 293.5,231.5 295.5,231.5 297.5,231.5C 299.751,232.015 301.751,233.015 303.5,234.5C 301.439,238.03 298.773,238.364 295.5,235.5C 295.027,234.094 294.027,233.427 292.5,233.5C 292.167,233.5 291.833,233.5 291.5,233.5C 291.5,232.833 291.167,232.5 290.5,232.5 Z"/></g>
<g><path style="opacity:1" fill="#4b8b4a" d="M 262.5,231.5 C 262.5,232.167 262.5,232.833 262.5,233.5C 261.167,234.167 260.167,235.167 259.5,236.5C 255.345,237.742 251.678,239.742 248.5,242.5C 247.305,242.678 246.138,243.011 245,243.5C 243.174,242.99 243.007,242.156 244.5,241C 250.438,237.533 256.438,234.366 262.5,231.5 Z"/></g>
<g><path style="opacity:1" fill="#bbeabc" d="M 374.5,229.5 C 377.09,231.888 378.757,234.888 379.5,238.5C 378.85,238.196 378.183,237.863 377.5,237.5C 376.745,234.675 375.745,232.009 374.5,229.5 Z"/></g>
<g><path style="opacity:1" fill="#e4f8e1" d="M 321.5,227.5 C 321.833,227.5 322.167,227.5 322.5,227.5C 323.687,229.975 325.687,230.975 328.5,230.5C 330.76,231.912 332.927,233.579 335,235.5C 335.483,236.448 335.649,237.448 335.5,238.5C 335.5,238.833 335.5,239.167 335.5,239.5C 335.167,239.5 334.833,239.5 334.5,239.5C 333.094,239.973 332.427,240.973 332.5,242.5C 332.5,243.167 332.5,243.833 332.5,244.5C 330.166,245.841 328.499,245.174 327.5,242.5C 328.496,242.414 329.329,242.748 330,243.5C 330.067,240.689 331.234,238.523 333.5,237C 330.944,233.08 327.277,230.913 322.5,230.5C 321.873,229.583 321.539,228.583 321.5,227.5 Z"/></g>
<g><path style="opacity:1" fill="#95bf94" d="M 290.5,242.5 C 290.167,242.5 289.833,242.5 289.5,242.5C 289.715,240.821 289.048,239.821 287.5,239.5C 288.287,237.896 289.62,237.229 291.5,237.5C 291.371,239.216 291.038,240.883 290.5,242.5 Z"/></g>
<g><path style="opacity:1" fill="#3ea33a" d="M 343.5,229.5 C 344.117,229.611 344.617,229.944 345,230.5C 345.667,233.167 345.667,235.833 345,238.5C 343.198,239.789 342.031,241.456 341.5,243.5C 340.222,243.782 339.222,244.449 338.5,245.5C 340.456,241.552 342.456,237.552 344.5,233.5C 344.154,232.151 343.821,230.817 343.5,229.5 Z"/></g>
<g><path style="opacity:1" fill="#b5e8af" d="M 379.5,238.5 C 379.833,238.5 380.167,238.5 380.5,238.5C 381.11,239.391 381.443,240.391 381.5,241.5C 380.094,241.027 379.427,240.027 379.5,238.5 Z"/></g>
<g><path style="opacity:1" fill="#aee2aa" d="M 334.5,239.5 C 334.573,241.027 333.906,242.027 332.5,242.5C 332.427,240.973 333.094,239.973 334.5,239.5 Z"/></g>
<g><path style="opacity:1" fill="#74b772" d="M 327.5,242.5 C 328.499,245.174 330.166,245.841 332.5,244.5C 332.38,245.586 331.713,246.253 330.5,246.5C 328.677,245.155 326.677,244.655 324.5,245C 320.493,247.338 318.826,250.838 319.5,255.5C 322.5,255.5 325.5,255.5 328.5,255.5C 325.713,256.477 322.713,256.81 319.5,256.5C 318.197,253.645 318.197,250.645 319.5,247.5C 321.316,246.185 322.983,244.685 324.5,243C 325.448,242.517 326.448,242.351 327.5,242.5 Z"/></g>
<g><path style="opacity:1" fill="#16a714" d="M 375.5,212.5 C 376.167,212.833 376.833,213.167 377.5,213.5C 379.399,217.302 380.733,221.302 381.5,225.5C 381.149,228.812 382.482,231.145 385.5,232.5C 385.5,233.167 385.5,233.833 385.5,234.5C 386.811,239.114 388.644,243.447 391,247.5C 392,248.167 393,248.833 394,249.5C 394.399,249.272 394.565,248.938 394.5,248.5C 395.5,249.167 396.5,249.833 397.5,250.5C 397.5,251.167 397.5,251.833 397.5,252.5C 398.038,254.117 398.371,255.784 398.5,257.5C 399.5,257.5 400.5,257.5 401.5,257.5C 401.5,258.5 401.5,259.5 401.5,260.5C 397.833,260.5 394.167,260.5 390.5,260.5C 390.443,258.116 390.777,255.782 391.5,253.5C 391.363,251.893 390.696,250.559 389.5,249.5C 388.575,248.359 387.741,248.359 387,249.5C 386.313,247.432 386.48,245.432 387.5,243.5C 384.55,242.468 382.217,240.801 380.5,238.5C 380.167,238.5 379.833,238.5 379.5,238.5C 378.757,234.888 377.09,231.888 374.5,229.5C 373.585,227.246 372.252,225.246 370.5,223.5C 370.5,222.833 370.5,222.167 370.5,221.5C 371.847,220.972 373.181,220.805 374.5,221C 372.962,224.972 373.962,225.972 377.5,224C 377.167,223.667 376.833,223.333 376.5,223C 379.264,220.301 378.597,218.634 374.5,218C 375.406,216.301 375.739,214.467 375.5,212.5 Z"/></g>
<g><path style="opacity:1" fill="#38a631" d="M 385.5,234.5 C 388.697,237.77 391.364,241.436 393.5,245.5C 393.557,246.609 393.89,247.609 394.5,248.5C 394.565,248.938 394.399,249.272 394,249.5C 393,248.833 392,248.167 391,247.5C 388.644,243.447 386.811,239.114 385.5,234.5 Z"/></g>
<g><path style="opacity:1" fill="#1b9418" d="M 287.5,239.5 C 289.048,239.821 289.715,240.821 289.5,242.5C 287.101,248.457 289.101,252.124 295.5,253.5C 296.373,255.886 297.873,257.886 300,259.5C 300.483,260.448 300.649,261.448 300.5,262.5C 296.833,262.5 293.167,262.5 289.5,262.5C 289.737,261.209 289.404,260.209 288.5,259.5C 288.167,258.833 287.833,258.167 287.5,257.5C 286.931,254.665 285.264,252.999 282.5,252.5C 282.08,250.906 281.414,249.406 280.5,248C 281.985,245.683 283.652,243.516 285.5,241.5C 286.167,240.833 286.833,240.167 287.5,239.5 Z"/></g>
<g><path style="opacity:1" fill="#a6d5a4" d="M 341.5,243.5 C 341.167,245.833 339.833,247.167 337.5,247.5C 337.833,246.833 338.167,246.167 338.5,245.5C 339.222,244.449 340.222,243.782 341.5,243.5 Z"/></g>
<g><path style="opacity:1" fill="#75c174" d="M 393.5,245.5 C 395.587,246.585 396.92,248.251 397.5,250.5C 396.5,249.833 395.5,249.167 394.5,248.5C 393.89,247.609 393.557,246.609 393.5,245.5 Z"/></g>
<g><path style="opacity:1" fill="#6bab6a" d="M 285.5,241.5 C 283.652,243.516 281.985,245.683 280.5,248C 281.414,249.406 282.08,250.906 282.5,252.5C 280.648,251.48 279.315,249.98 278.5,248C 280.059,244.939 282.392,242.773 285.5,241.5 Z"/></g>
<g><path style="opacity:1" fill="#d2edcf" d="M 381.5,241.5 C 383.008,243.181 384.008,245.181 384.5,247.5C 384.5,248.833 384.5,250.167 384.5,251.5C 383.307,251.03 382.64,250.03 382.5,248.5C 382.003,246.182 381.67,243.848 381.5,241.5 Z"/></g>
<g><path style="opacity:1" fill="#d3f0d0" d="M 289.5,242.5 C 289.833,242.5 290.167,242.5 290.5,242.5C 290.69,248.204 293.69,251.704 299.5,253C 298.829,253.986 298.829,255.153 299.5,256.5C 298.167,255.5 296.833,254.5 295.5,253.5C 289.101,252.124 287.101,248.457 289.5,242.5 Z"/></g>
<g><path style="opacity:1" fill="#159c13" d="M 334.5,239.5 C 334.833,239.5 335.167,239.5 335.5,239.5C 335.551,241.57 334.885,243.403 333.5,245C 333.833,245.5 334.167,246 334.5,246.5C 335.736,245.754 337.07,245.421 338.5,245.5C 338.167,246.167 337.833,246.833 337.5,247.5C 335.413,248.585 334.08,250.251 333.5,252.5C 332.078,253.925 330.411,254.925 328.5,255.5C 325.5,255.5 322.5,255.5 319.5,255.5C 318.826,250.838 320.493,247.338 324.5,245C 326.677,244.655 328.677,245.155 330.5,246.5C 331.713,246.253 332.38,245.586 332.5,244.5C 332.5,243.833 332.5,243.167 332.5,242.5C 333.906,242.027 334.573,241.027 334.5,239.5 Z"/></g>
<g><path style="opacity:1" fill="#9cd69b" d="M 337.5,247.5 C 336.92,249.749 335.587,251.415 333.5,252.5C 334.08,250.251 335.413,248.585 337.5,247.5 Z"/></g>
<g><path style="opacity:1" fill="#6fb36a" d="M 397.5,250.5 C 398.5,250.833 399.167,251.5 399.5,252.5C 399.5,252.833 399.5,253.167 399.5,253.5C 398.833,253.167 398.167,252.833 397.5,252.5C 397.5,251.833 397.5,251.167 397.5,250.5 Z"/></g>
<g><path style="opacity:1" fill="#c0dfbf" d="M 237.5,245.5 C 237.5,246.167 237.5,246.833 237.5,247.5C 237.21,250.785 237.877,253.785 239.5,256.5C 238.292,255.766 236.959,255.433 235.5,255.5C 235.549,251.922 236.215,248.589 237.5,245.5 Z"/></g>
<g><path style="opacity:1" fill="#158413" d="M 237.5,228.5 C 237.833,228.5 238.167,228.5 238.5,228.5C 239.833,230.5 241.5,232.167 243.5,233.5C 241.873,235.63 240.04,237.63 238,239.5C 237.51,240.793 237.343,242.127 237.5,243.5C 237.5,244.167 237.5,244.833 237.5,245.5C 236.215,248.589 235.549,251.922 235.5,255.5C 237.785,257.118 239.785,259.118 241.5,261.5C 237.555,262.491 233.555,262.824 229.5,262.5C 229.5,260.833 229.5,259.167 229.5,257.5C 230.817,251.58 231.483,245.58 231.5,239.5C 231.5,238.167 231.5,236.833 231.5,235.5C 234.243,233.761 236.243,231.427 237.5,228.5 Z"/></g>
<g><path style="opacity:1" fill="#449540" d="M 282.5,252.5 C 285.264,252.999 286.931,254.665 287.5,257.5C 285.5,256.167 283.833,254.5 282.5,252.5 Z"/></g>
<g><path style="opacity:1" fill="#d6f3d5" d="M 399.5,253.5 C 399.5,253.167 399.5,252.833 399.5,252.5C 403.092,253.875 405.092,256.542 405.5,260.5C 404.833,259.833 404.167,259.167 403.5,258.5C 402.396,256.611 401.063,254.945 399.5,253.5 Z"/></g>
<g><path style="opacity:1" fill="#378434" d="M 231.5,239.5 C 231.483,245.58 230.817,251.58 229.5,257.5C 229.167,257.5 228.833,257.5 228.5,257.5C 227.662,257.158 227.328,256.492 227.5,255.5C 228.545,249.986 229.878,244.653 231.5,239.5 Z"/></g>
<g><path style="opacity:1" fill="#dbf3de" d="M 385.5,252.5 C 386.5,252.5 387.5,252.5 388.5,252.5C 388.5,255.5 388.5,258.5 388.5,261.5C 386.677,258.984 385.677,255.984 385.5,252.5 Z"/></g>
<g><path style="opacity:1" fill="#d9f4da" d="M 333.5,252.5 C 332.962,254.117 332.629,255.784 332.5,257.5C 327.968,257.818 323.634,257.485 319.5,256.5C 322.713,256.81 325.713,256.477 328.5,255.5C 330.411,254.925 332.078,253.925 333.5,252.5 Z"/></g>
<g><path style="opacity:1" fill="#249a22" d="M 380.5,238.5 C 382.217,240.801 384.55,242.468 387.5,243.5C 386.48,245.432 386.313,247.432 387,249.5C 387.741,248.359 388.575,248.359 389.5,249.5C 390.696,250.559 391.363,251.893 391.5,253.5C 390.777,255.782 390.443,258.116 390.5,260.5C 394.167,260.5 397.833,260.5 401.5,260.5C 401.5,259.5 401.5,258.5 401.5,257.5C 400.5,257.5 399.5,257.5 398.5,257.5C 398.371,255.784 398.038,254.117 397.5,252.5C 398.167,252.833 398.833,253.167 399.5,253.5C 401.063,254.945 402.396,256.611 403.5,258.5C 403.5,259.5 403.5,260.5 403.5,261.5C 398.833,261.5 394.167,261.5 389.5,261.5C 389.5,258.167 389.5,254.833 389.5,251.5C 388.167,251.5 386.833,251.5 385.5,251.5C 385.768,249.901 385.434,248.568 384.5,247.5C 384.008,245.181 383.008,243.181 381.5,241.5C 381.443,240.391 381.11,239.391 380.5,238.5 Z"/></g>
<g><path style="opacity:1" fill="#a1c19f" d="M 227.5,255.5 C 227.328,256.492 227.662,257.158 228.5,257.5C 228.5,259.5 228.5,261.5 228.5,263.5C 227.657,261.513 226.99,259.346 226.5,257C 226.57,256.235 226.903,255.735 227.5,255.5 Z"/></g>
<g><path style="opacity:1" fill="#5ca45b" d="M 384.5,247.5 C 385.434,248.568 385.768,249.901 385.5,251.5C 386.833,251.5 388.167,251.5 389.5,251.5C 389.5,254.833 389.5,258.167 389.5,261.5C 394.167,261.5 398.833,261.5 403.5,261.5C 403.5,260.5 403.5,259.5 403.5,258.5C 404.167,259.167 404.833,259.833 405.5,260.5C 403.085,261.814 400.252,262.481 397,262.5C 393.979,262.498 391.146,262.164 388.5,261.5C 388.5,258.5 388.5,255.5 388.5,252.5C 387.5,252.5 386.5,252.5 385.5,252.5C 384.833,252.5 384.5,252.167 384.5,251.5C 384.5,250.167 384.5,248.833 384.5,247.5 Z"/></g>
<g><path style="opacity:1" fill="#539755" d="M 235.5,255.5 C 236.959,255.433 238.292,255.766 239.5,256.5C 239.833,257.5 240.5,258.167 241.5,258.5C 242.301,260.042 242.634,261.708 242.5,263.5C 237.833,263.5 233.167,263.5 228.5,263.5C 228.5,261.5 228.5,259.5 228.5,257.5C 228.833,257.5 229.167,257.5 229.5,257.5C 229.5,259.167 229.5,260.833 229.5,262.5C 233.555,262.824 237.555,262.491 241.5,261.5C 239.785,259.118 237.785,257.118 235.5,255.5 Z"/></g>
<g><path style="opacity:1" fill="#479746" d="M 295.5,253.5 C 296.833,254.5 298.167,255.5 299.5,256.5C 300.5,257.833 301.5,259.167 302.5,260.5C 302.804,261.15 303.137,261.817 303.5,262.5C 298.544,263.494 293.544,263.827 288.5,263.5C 288.5,262.167 288.5,260.833 288.5,259.5C 289.404,260.209 289.737,261.209 289.5,262.5C 293.167,262.5 296.833,262.5 300.5,262.5C 300.649,261.448 300.483,260.448 300,259.5C 297.873,257.886 296.373,255.886 295.5,253.5 Z"/></g>
<g><path style="opacity:1" fill="#d3e6d1" d="M 241.5,258.5 C 243.614,259.784 244.614,261.784 244.5,264.5C 238.974,264.821 233.64,264.488 228.5,263.5C 233.167,263.5 237.833,263.5 242.5,263.5C 242.634,261.708 242.301,260.042 241.5,258.5 Z"/></g>
<g><path style="opacity:1" fill="#add1ae" d="M 302.5,260.5 C 304.176,261.183 304.843,262.517 304.5,264.5C 298.974,264.821 293.64,264.488 288.5,263.5C 293.544,263.827 298.544,263.494 303.5,262.5C 303.137,261.817 302.804,261.15 302.5,260.5 Z"/></g>
</svg>
